<?xml version="1.0" encoding="utf-8" ?>
<svg xmlns="http://www.w3.org/2000/svg" xmlns:xlink="http://www.w3.org/1999/xlink" width="1600" height="1600">
	<path fill="#CB7FFE" d="M796.505 127.676C836.711 126.358 878.596 129.975 918.187 137.014Q927.654 138.755 937.064 140.777Q946.475 142.798 955.821 145.1Q965.167 147.401 974.441 149.98Q983.714 152.558 992.907 155.412Q1002.1 158.266 1011.2 161.392Q1020.31 164.518 1029.31 167.914Q1038.32 171.31 1047.22 174.973Q1056.12 178.636 1064.91 182.562C1188.02 236.713 1281.23 316.415 1357.95 426.66Q1361.86 432.323 1365.65 438.067Q1369.45 443.81 1373.12 449.633Q1376.79 455.456 1380.33 461.355Q1383.88 467.254 1387.3 473.226Q1390.72 479.198 1394.02 485.242Q1397.31 491.285 1400.48 497.397Q1403.64 503.508 1406.68 509.685Q1409.72 515.862 1412.62 522.102Q1415.53 528.341 1418.3 534.641Q1421.07 540.941 1423.71 547.297Q1426.35 553.654 1428.85 560.065Q1431.36 566.476 1433.73 572.939Q1436.1 579.401 1438.33 585.912Q1440.56 592.423 1442.65 598.98Q1444.75 605.537 1446.7 612.136Q1448.66 618.735 1450.47 625.375Q1452.29 632.014 1453.96 638.69Q1455.63 645.366 1457.17 652.076Q1458.7 658.786 1460.09 665.527Q1461.48 672.268 1462.73 679.036Q1463.98 685.805 1465.09 692.598Q1466.19 699.392 1467.15 706.207Q1468.11 713.023 1468.93 719.857Q1469.75 726.691 1470.42 733.541Q1471.1 740.39 1471.62 747.253Q1472.15 754.115 1472.54 760.988Q1472.92 767.86 1473.16 774.739Q1473.4 781.617 1473.49 788.499Q1473.58 795.382 1473.53 802.264Q1473.48 809.147 1473.28 816.027Q1473.08 822.907 1472.74 829.781Q1472.4 836.656 1471.91 843.521C1470.54 861.331 1469.02 879.58 1465.86 897.169C1464.81 891.364 1466.53 882.852 1466.85 876.741Q1467.64 861.877 1467.45 846.994Q1467.21 830.824 1466.03 814.695Q1464.85 798.566 1462.74 782.532Q1460.62 766.499 1457.59 750.614Q1454.55 734.73 1450.6 719.048C1428.63 633.457 1389.01 558.613 1316.93 505.613C1296 490.227 1273.24 477.959 1250.93 464.782C1274.04 504.833 1288.28 551.7 1299.71 596.239Q1301.6 603.597 1303.32 610.999Q1305.03 618.401 1306.56 625.843Q1308.1 633.285 1309.45 640.762Q1310.8 648.239 1311.96 655.747Q1313.13 663.255 1314.11 670.789Q1315.1 678.323 1315.9 685.879Q1316.69 693.435 1317.31 701.008Q1317.92 708.581 1318.35 716.167Q1318.78 723.753 1319.02 731.347Q1319.26 738.941 1319.32 746.539Q1319.38 754.136 1319.25 761.733Q1319.12 769.33 1318.8 776.922Q1318.49 784.513 1317.99 792.094Q1317.49 799.676 1316.8 807.243Q1316.12 814.81 1315.25 822.358Q1314.38 829.906 1313.32 837.43Q1312.27 844.955 1311.03 852.451Q1309.79 859.948 1308.37 867.411Q1306.95 874.875 1305.35 882.302Q1303.75 889.729 1301.96 897.115Q1300.18 904.5 1298.21 911.84Q1296.25 919.18 1294.11 926.469Q1291.96 933.759 1289.64 940.994Q1287.32 948.229 1284.82 955.405Q1282.33 962.581 1279.66 969.693Q1276.99 976.806 1274.14 983.852Q1271.3 990.897 1268.28 997.871Q1265.26 1004.84 1262.08 1011.74Q1258.89 1018.64 1255.54 1025.46Q1252.19 1032.28 1248.67 1039.01Q1245.15 1045.74 1241.47 1052.39Q1237.78 1059.04 1233.94 1065.59C1181.43 1154.2 1111.63 1235.78 1007.99 1262.27Q1014.82 1263.51 1021.68 1264.49Q1028.55 1265.46 1035.45 1266.17Q1042.36 1266.88 1049.28 1267.32Q1056.2 1267.76 1063.14 1267.93Q1070.07 1268.11 1077.01 1268.01Q1083.95 1267.91 1090.88 1267.55Q1097.8 1267.19 1104.71 1266.55Q1111.62 1265.92 1118.5 1265.02C1231.83 1251.22 1317.16 1206.36 1385.59 1114.03C1396.12 1099.84 1405.39 1085.02 1414.27 1069.76C1419.27 1061.17 1423.34 1051.83 1429.48 1043.98C1426.08 1054.29 1420.84 1064.06 1416.28 1073.9C1403.83 1100.73 1390.86 1127.63 1374.33 1152.25Q1369.6 1159.33 1364.69 1166.29Q1359.79 1173.26 1354.72 1180.1Q1349.64 1186.94 1344.4 1193.65Q1339.16 1200.36 1333.76 1206.95Q1328.36 1213.53 1322.8 1219.98Q1317.23 1226.42 1311.51 1232.73Q1305.79 1239.04 1299.92 1245.21Q1294.05 1251.38 1288.03 1257.4Q1282 1263.42 1275.84 1269.29Q1269.67 1275.17 1263.36 1280.89Q1257.05 1286.6 1250.6 1292.17Q1244.15 1297.73 1237.57 1303.13Q1230.98 1308.53 1224.27 1313.77Q1217.56 1319.01 1210.71 1324.08Q1203.87 1329.16 1196.91 1334.06Q1189.95 1338.96 1182.87 1343.7Q1175.79 1348.43 1168.59 1352.98Q1161.4 1357.54 1154.09 1361.92Q1146.79 1366.29 1139.38 1370.49Q1131.97 1374.69 1124.46 1378.7Q1116.94 1382.72 1109.34 1386.55Q1101.73 1390.37 1094.03 1394.02Q1086.33 1397.66 1078.55 1401.11Q1070.76 1404.56 1062.89 1407.82Q1055.03 1411.07 1047.08 1414.14Q1039.13 1417.2 1031.12 1420.07Q1023.1 1422.94 1015.01 1425.61Q1006.92 1428.28 998.775 1430.76Q990.626 1433.23 982.418 1435.5Q974.21 1437.77 965.949 1439.84Q957.688 1441.91 949.379 1443.77Q941.07 1445.64 932.717 1447.3C817.797 1469.9 694.568 1464.39 584.972 1421.2C567.971 1414.5 548.93 1408.28 533.756 1398.12C563.785 1408.34 593.547 1417.27 625.122 1421.33C746.578 1436.93 853.61 1395.05 948.834 1321.58C819.935 1325.19 701.432 1293.04 593.731 1222Q580.221 1212.87 567.272 1202.96C468.934 1127.54 388.991 1021.63 352.145 902.705C341.395 868.007 334.926 832.994 330.183 797.049C284.424 853.047 260.653 930.39 256.151 1001.78C249.602 1105.65 282.369 1202.26 348.677 1282.06Q363.899 1300.47 380.812 1317.33C387.619 1323.98 395.388 1329.82 401.677 1336.95C401.47 1336.88 401.257 1336.82 401.056 1336.73C392.631 1333.04 371.818 1314.28 363.532 1307.34C285.301 1241.79 229.943 1166.01 189.13 1072.37C179.057 1049.26 171.1 1025.47 163.571 1001.43C117.658 854.804 119.561 699.957 176.072 556.46Q178.426 550.311 180.904 544.21Q183.381 538.11 185.981 532.06Q188.58 526.011 191.301 520.015Q194.022 514.019 196.864 508.079Q199.705 502.139 202.665 496.258Q205.625 490.376 208.703 484.556Q211.781 478.735 214.975 472.977Q218.17 467.22 221.48 461.528Q224.789 455.836 228.213 450.211Q231.637 444.587 235.173 439.033Q238.709 433.478 242.356 427.996Q246.004 422.514 249.76 417.107Q253.517 411.7 257.382 406.369Q261.247 401.038 265.219 395.786Q269.19 390.535 273.267 385.364Q277.343 380.193 281.523 375.105Q285.703 370.018 289.984 365.015Q294.265 360.013 298.646 355.097Q303.027 350.182 307.507 345.356Q311.986 340.53 316.561 335.795Q321.137 331.06 325.806 326.418Q330.476 321.776 335.238 317.229Q340.001 312.682 344.854 308.232Q349.707 303.782 354.648 299.43Q359.589 295.079 364.618 290.828Q369.646 286.576 374.758 282.427Q379.871 278.278 385.066 274.233Q390.261 270.187 395.537 266.247Q400.812 262.307 406.166 258.474Q411.52 254.641 416.949 250.917Q422.379 247.193 427.883 243.578Q433.387 239.964 438.962 236.461C461.607 222.289 484.818 208.533 509.363 197.885C499.178 205.555 487.843 211.479 477.116 218.338C465.64 225.675 454.711 233.953 443.812 242.109C372.017 295.834 310.794 368.407 273.133 450.093C239.971 522.02 220.912 627.171 249.117 703.487C272.669 647.438 301.877 597.449 340.348 550.276Q345.23 544.217 350.261 538.28Q355.292 532.344 360.469 526.534Q365.646 520.724 370.965 515.044Q376.285 509.365 381.743 503.819Q387.202 498.273 392.796 492.864Q398.391 487.456 404.118 482.188Q409.845 476.919 415.701 471.795Q421.557 466.67 427.538 461.693Q433.52 456.715 439.622 451.887Q445.725 447.059 451.946 442.385Q458.167 437.71 464.502 433.191Q470.837 428.672 477.282 424.311Q483.727 419.951 490.278 415.751Q496.83 411.552 503.483 407.517Q510.137 403.481 516.888 399.612Q523.64 395.743 530.485 392.043Q537.33 388.342 544.266 384.813Q551.201 381.283 558.221 377.927Q565.242 374.571 572.344 371.39Q579.445 368.209 586.624 365.205Q593.802 362.201 601.053 359.376Q608.304 356.551 615.622 353.907Q622.941 351.263 630.323 348.801Q637.705 346.339 645.145 344.062Q652.586 341.784 660.081 339.691Q667.576 337.599 675.121 335.693Q682.665 333.787 690.255 332.069Q697.844 330.351 705.474 328.821Q713.104 327.292 720.769 325.952Q728.435 324.613 736.131 323.464Q743.827 322.315 751.55 321.357Q759.272 320.4 767.016 319.634C876.272 308.676 989.513 327.32 1086.66 379.64C1102.66 388.258 1119.95 396.644 1134.06 408.193C1124.75 392.359 1120.81 372.605 1113.45 355.665C1092.11 306.499 1055.29 265.486 1012.89 233.4Q1009.15 230.62 1005.35 227.914Q1001.55 225.209 997.702 222.581Q993.852 219.952 989.949 217.402Q986.047 214.851 982.094 212.378Q978.141 209.906 974.14 207.514Q970.138 205.121 966.09 202.809Q962.041 200.497 957.947 198.266Q953.853 196.035 949.715 193.887Q945.578 191.739 941.397 189.674Q937.218 187.609 932.997 185.628Q928.777 183.647 924.517 181.751Q920.258 179.855 915.962 178.045Q911.665 176.234 907.333 174.51Q903.002 172.786 898.636 171.149Q894.271 169.512 889.874 167.963Q885.476 166.414 881.049 164.953Q876.622 163.492 872.166 162.119Q867.71 160.747 863.228 159.465Q858.745 158.182 854.238 156.989Q849.731 155.797 845.201 154.694Q840.671 153.592 836.12 152.581Q831.569 151.57 826.998 150.649Q822.428 149.729 817.84 148.901Q813.251 148.073 808.648 147.336Q804.044 146.6 799.427 145.956Q794.809 145.312 790.18 144.76Q785.55 144.208 780.91 143.75Q776.271 143.291 771.623 142.925Q766.975 142.559 762.321 142.286Q757.667 142.014 753.008 141.834Q748.349 141.655 743.688 141.568Q739.026 141.482 734.364 141.489C706.116 141.601 677.558 145.177 649.612 149.032C693.375 133.677 750.449 129.776 796.505 127.676ZM871.767 380.819C802.059 385.121 737.45 414.839 691.052 467.421C667.542 494.064 649.685 522.516 637.791 556.148C655.141 557.785 672.579 559.122 689.719 562.374C751.241 574.048 804.243 604.829 845.309 652.088C802.488 648.119 760.808 656.078 727.076 684.077C693.428 712.005 669.628 749.838 665.896 794.044C665.33 800.741 665.34 807.435 665.529 814.148C621.658 755.562 608.159 682.255 618.534 610.546Q621.334 592.255 625.908 574.324C561.862 577.033 509.29 593.926 464.674 642.541C422.466 688.531 395.823 750.12 398.663 813.202Q398.777 815.971 398.96 818.737Q399.143 821.503 399.395 824.263Q399.647 827.024 399.966 829.777Q400.286 832.53 400.674 835.275Q401.062 838.019 401.518 840.753Q401.974 843.487 402.498 846.209Q403.021 848.931 403.612 851.639Q404.203 854.347 404.861 857.04Q405.519 859.732 406.243 862.408Q406.967 865.083 407.758 867.74Q408.548 870.397 409.404 873.033Q410.26 875.669 411.181 878.283Q412.102 880.898 413.088 883.488Q414.074 886.079 415.123 888.644Q416.173 891.21 417.285 893.748Q418.398 896.287 419.574 898.797Q420.749 901.307 421.986 903.788Q423.224 906.268 424.522 908.717Q425.82 911.166 427.179 913.582Q428.537 915.998 429.956 918.379Q431.374 920.761 432.85 923.106Q434.327 925.452 435.861 927.76Q437.396 930.069 438.987 932.338Q440.578 934.608 442.225 936.837Q443.872 939.067 445.574 941.255Q447.275 943.443 449.031 945.588Q450.786 947.733 452.594 949.834Q454.402 951.935 456.261 953.99Q458.121 956.045 460.031 958.054Q461.941 960.063 463.9 962.024Q465.859 963.984 467.866 965.896Q469.873 967.808 471.927 969.669C522.365 1015.17 591.607 1040.84 659.671 1037.37C671.1 1036.79 682.486 1035.12 693.779 1033.33C667.977 966.921 661.708 923.653 674.204 853.237C678.681 862.441 682.944 871.952 688.211 880.733C707.306 912.573 735.947 937.953 771.344 950.047C809.969 963.244 856.488 961.141 893.274 943.028C902.189 938.639 910.116 932.778 918.384 927.321L920.026 927.218C922.312 935.859 905.966 968.497 900.684 977.565C879.516 1013.91 842.966 1044.28 805.928 1063.69C788.719 1072.71 770.423 1079.82 752.235 1086.59C789.282 1137.31 848.432 1168.69 909.781 1178.3C974.614 1188.46 1040.83 1177.48 1094.66 1138.06Q1097.28 1136.13 1099.85 1134.14Q1102.41 1132.15 1104.93 1130.09Q1107.45 1128.04 1109.92 1125.92Q1112.39 1123.8 1114.8 1121.62Q1117.21 1119.45 1119.57 1117.21Q1121.93 1114.97 1124.24 1112.68Q1126.54 1110.39 1128.79 1108.04Q1131.03 1105.69 1133.22 1103.28Q1135.41 1100.88 1137.53 1098.42Q1139.66 1095.96 1141.73 1093.45Q1143.79 1090.94 1145.8 1088.38Q1147.8 1085.82 1149.74 1083.21Q1151.68 1080.6 1153.55 1077.94Q1155.42 1075.29 1157.23 1072.59Q1159.04 1069.88 1160.78 1067.14Q1162.52 1064.39 1164.19 1061.6Q1165.87 1058.82 1167.47 1055.99Q1169.07 1053.16 1170.6 1050.29Q1172.14 1047.43 1173.6 1044.52Q1175.06 1041.62 1176.45 1038.68Q1177.83 1035.74 1179.15 1032.77Q1180.47 1029.79 1181.71 1026.79Q1182.95 1023.78 1184.12 1020.75Q1185.28 1017.72 1186.38 1014.65Q1187.47 1011.59 1188.48 1008.5Q1189.5 1005.42 1190.44 1002.3Q1191.38 999.191 1192.24 996.056Q1193.1 992.922 1193.88 989.767Q1194.67 986.612 1195.37 983.438Q1196.08 980.265 1196.71 977.075Q1197.33 973.885 1197.88 970.681Q1198.43 967.477 1198.9 964.26C1208.33 902.689 1193.21 834.434 1155.95 784.164C1145.77 770.434 1133.31 758.316 1120.74 746.795C1109.52 761.014 1100.17 776.559 1088.91 790.726C1052.59 836.417 1005.28 873.068 949.603 891.371C972.917 848.983 980.768 812.228 966.941 764.558C954.157 720.479 924.639 687.621 884.672 665.942Q882.878 664.958 881.052 664.034C940.119 646.472 1003.75 650.227 1058.44 679.668Q1070.62 686.274 1082.18 693.905Q1093.74 701.535 1104.6 710.133Q1105.67 707.356 1106.67 704.553Q1107.67 701.75 1108.6 698.924Q1109.53 696.098 1110.39 693.25Q1111.25 690.402 1112.04 687.534Q1112.83 684.665 1113.55 681.778Q1114.27 678.892 1114.92 675.988Q1115.57 673.084 1116.15 670.166Q1116.73 667.247 1117.24 664.315Q1117.75 661.383 1118.18 658.44Q1118.62 655.496 1118.98 652.543Q1119.34 649.59 1119.63 646.629Q1119.92 643.668 1120.14 640.7Q1120.36 637.733 1120.51 634.761Q1120.65 631.789 1120.73 628.815Q1120.8 625.84 1120.8 622.865Q1120.8 619.889 1120.73 616.914Q1120.65 613.94 1120.51 610.968Q1120.36 607.996 1120.14 605.029Q1119.93 602.061 1119.64 599.1Q1119.35 596.139 1118.98 593.186Q1118.62 590.232 1118.18 587.289Q1117.75 584.345 1117.24 581.413Q1116.74 578.481 1116.16 575.563Q1115.58 572.644 1114.93 569.74Q1114.28 566.837 1113.56 563.95Q1112.84 561.063 1112.05 558.194Q1111.26 555.326 1110.4 552.478Q1109.54 549.63 1108.6 546.803Q1107.67 543.977 1106.68 541.174Q1105.68 538.372 1104.61 535.594Q1103.54 532.817 1102.41 530.066Q1101.27 527.316 1100.07 524.594Q1098.88 521.867 1097.62 519.171Q1096.36 516.475 1095.03 513.811Q1093.7 511.147 1092.31 508.516Q1090.92 505.886 1089.46 503.291Q1088 500.697 1086.48 498.139Q1084.96 495.581 1083.38 493.062Q1081.79 490.543 1080.14 488.064Q1078.5 485.585 1076.79 483.148Q1075.08 480.711 1073.31 478.317Q1071.54 475.923 1069.72 473.574Q1067.89 471.225 1066 468.922Q1064.12 466.619 1062.18 464.363Q1060.24 462.108 1058.24 459.902Q1056.24 457.695 1054.19 455.539Q1052.14 453.383 1050.03 451.279Q1047.93 449.174 1045.77 447.123Q1043.62 445.072 1041.41 443.075Q1039.2 441.078 1036.95 439.136Q1034.69 437.194 1032.39 435.31Q1030.09 433.425 1027.74 431.598Q1025.39 429.771 1022.99 428.003Q1020.6 426.235 1018.16 424.527Q1015.73 422.819 1013.25 421.172Q1010.77 419.526 1008.25 417.941Q1005.73 416.357 1003.17 414.835Q1000.61 413.314 998.018 411.856Q995.423 410.399 992.793 409.007Q990.163 407.614 987.498 406.288Q984.834 404.962 982.138 403.702Q979.442 402.442 976.715 401.25Q973.988 400.057 971.232 398.933Q968.477 397.809 965.694 396.754C937.171 385.69 902.454 379.246 871.767 380.819Z"/>
</svg>
