<?xml version="1.0" encoding="utf-8" ?>
<svg xmlns="http://www.w3.org/2000/svg" xmlns:xlink="http://www.w3.org/1999/xlink" width="1024" height="1024">
	<path fill="#00C0FE" d="M281.3 393.099C284.765 392.82 288.958 393.452 292.157 394.745Q292.6 394.919 293.033 395.116Q293.466 395.313 293.889 395.532Q294.311 395.751 294.721 395.992Q295.132 396.233 295.529 396.495Q295.926 396.757 296.309 397.039Q296.692 397.322 297.06 397.624Q297.428 397.926 297.779 398.247Q298.131 398.567 298.465 398.906Q298.8 399.245 299.116 399.6Q299.432 399.956 299.729 400.327Q300.026 400.699 300.304 401.086Q300.581 401.472 300.838 401.873Q301.095 402.273 301.331 402.687Q301.566 403.1 301.78 403.525Q301.994 403.95 302.185 404.386Q302.377 404.822 302.545 405.267Q302.735 405.76 302.898 406.262Q303.062 406.764 303.2 407.273Q303.338 407.783 303.449 408.299Q303.56 408.815 303.645 409.336Q303.729 409.857 303.787 410.382Q303.844 410.907 303.874 411.434Q303.905 411.961 303.908 412.489Q303.911 413.017 303.886 413.545Q303.862 414.072 303.81 414.598Q303.759 415.123 303.68 415.645Q303.602 416.167 303.496 416.684Q303.391 417.202 303.259 417.713Q303.127 418.224 302.969 418.728Q302.811 419.232 302.627 419.726Q302.443 420.221 302.233 420.706Q302.024 421.191 301.79 421.664C298.575 428.064 292.788 431.326 286.264 433.443C281.06 433.677 276.158 432.864 271.787 429.862Q271.366 429.57 270.959 429.257Q270.553 428.944 270.163 428.611Q269.772 428.279 269.399 427.927Q269.026 427.575 268.67 427.205Q268.315 426.835 267.979 426.448Q267.642 426.061 267.326 425.658Q267.009 425.255 266.713 424.836Q266.416 424.417 266.141 423.984Q265.866 423.552 265.613 423.105Q265.36 422.659 265.129 422.201Q264.899 421.743 264.691 421.274Q264.484 420.805 264.3 420.327Q264.116 419.848 263.956 419.361Q263.796 418.873 263.66 418.379Q263.525 417.884 263.414 417.383Q263.304 416.883 263.218 416.377Q263.132 415.893 263.07 415.405Q263.009 414.917 262.972 414.426Q262.934 413.936 262.922 413.444Q262.909 412.952 262.921 412.461Q262.933 411.969 262.969 411.478Q263.005 410.988 263.066 410.5Q263.127 410.012 263.211 409.527Q263.296 409.043 263.405 408.563Q263.514 408.083 263.647 407.61Q263.78 407.136 263.936 406.67Q264.092 406.203 264.272 405.745Q264.451 405.287 264.653 404.839Q264.854 404.39 265.078 403.952Q265.302 403.514 265.548 403.088Q265.793 402.662 266.06 402.248Q266.326 401.835 266.613 401.435C270.219 396.423 275.423 394.197 281.3 393.099Z"/>
	<path fill="#00C0FE" d="M123.947 379.566C128.606 379.386 133.071 379.797 137.253 382.041Q137.687 382.28 138.109 382.54Q138.531 382.8 138.939 383.082Q139.346 383.363 139.74 383.665Q140.133 383.967 140.51 384.288Q140.887 384.609 141.248 384.949Q141.609 385.289 141.952 385.647Q142.295 386.004 142.619 386.379Q142.943 386.754 143.248 387.144Q143.553 387.535 143.838 387.94Q144.123 388.346 144.387 388.765Q144.651 389.185 144.893 389.617Q145.136 390.049 145.356 390.493Q145.576 390.937 145.773 391.392Q145.971 391.846 146.145 392.31Q146.319 392.774 146.469 393.247Q146.62 393.719 146.746 394.198Q146.883 394.679 146.996 395.167Q147.109 395.654 147.197 396.146Q147.286 396.638 147.351 397.135Q147.415 397.631 147.455 398.129Q147.495 398.628 147.51 399.128Q147.525 399.628 147.516 400.128Q147.507 400.628 147.473 401.127Q147.439 401.627 147.381 402.123Q147.322 402.62 147.239 403.113Q147.156 403.607 147.049 404.095Q146.942 404.584 146.811 405.067Q146.68 405.55 146.526 406.026Q146.371 406.501 146.194 406.969Q146.016 407.436 145.815 407.895Q145.615 408.353 145.392 408.801Q145.169 409.249 144.924 409.685C141.569 415.558 135.983 418.261 129.77 420.081C124.738 420.466 120.002 419.92 115.548 417.362C110.911 414.699 107.685 410.18 106.41 405.013Q106.288 404.526 106.189 404.034Q106.091 403.542 106.018 403.045Q105.944 402.549 105.895 402.049Q105.846 401.549 105.822 401.048Q105.797 400.546 105.798 400.044Q105.799 399.542 105.824 399.041Q105.85 398.54 105.9 398.04Q105.95 397.541 106.025 397.045Q106.1 396.548 106.2 396.056Q106.299 395.564 106.423 395.078Q106.546 394.591 106.694 394.111Q106.842 393.631 107.013 393.16Q107.184 392.688 107.378 392.225Q107.573 391.762 107.79 391.309Q108.007 390.857 108.246 390.415Q108.485 389.974 108.746 389.545C112.22 383.814 117.723 381.217 123.947 379.566Z"/>
	<path fill="#00C0FE" d="M413.288 689.193C418.721 689.477 423.58 690.962 427.678 694.696Q428.083 695.07 428.469 695.464Q428.855 695.858 429.22 696.271Q429.585 696.685 429.929 697.116Q430.272 697.547 430.593 697.995Q430.915 698.443 431.213 698.907Q431.511 699.371 431.784 699.85Q432.058 700.328 432.308 700.82Q432.557 701.312 432.781 701.816Q433.005 702.32 433.203 702.835Q433.401 703.349 433.572 703.873Q433.744 704.397 433.888 704.93Q434.033 705.462 434.15 706Q434.267 706.539 434.357 707.083Q434.447 707.627 434.509 708.175Q434.57 708.723 434.604 709.273Q434.638 709.824 434.644 710.375C434.759 716.285 432.663 722.187 428.501 726.438C424.123 730.911 418.815 732.506 412.724 732.558C408 731.76 403.977 730.505 400.144 727.457C395.177 723.507 391.719 717.611 391.246 711.234Q391.205 710.735 391.188 710.234Q391.172 709.733 391.181 709.233Q391.191 708.732 391.225 708.232Q391.259 707.732 391.319 707.235Q391.378 706.737 391.463 706.244Q391.547 705.75 391.657 705.261Q391.766 704.772 391.9 704.29Q392.034 703.807 392.192 703.332Q392.349 702.856 392.531 702.389Q392.713 701.923 392.918 701.466Q393.123 701.008 393.351 700.562Q393.579 700.116 393.829 699.682Q394.079 699.248 394.35 698.827Q394.622 698.406 394.914 698Q395.207 697.593 395.519 697.202Q395.832 696.81 396.164 696.435C400.808 691.174 406.565 689.605 413.288 689.193Z"/>
	<path fill="#00C0FE" d="M229.631 473.143C237.415 471.911 246.317 474.273 252.914 478.468Q253.687 478.954 254.434 479.477Q255.182 480.001 255.903 480.56Q256.624 481.12 257.317 481.714Q258.01 482.309 258.672 482.937Q259.334 483.565 259.965 484.225Q260.596 484.885 261.193 485.575Q261.79 486.265 262.353 486.984Q262.915 487.702 263.442 488.448Q263.968 489.194 264.457 489.964Q264.946 490.735 265.397 491.529Q265.847 492.323 266.258 493.138Q266.669 493.953 267.039 494.787Q267.409 495.622 267.737 496.473Q268.066 497.325 268.352 498.192Q268.638 499.059 268.881 499.938Q269.124 500.818 269.323 501.709Q269.513 502.588 269.66 503.474Q269.806 504.361 269.908 505.255Q270.01 506.148 270.067 507.045Q270.125 507.942 270.137 508.841Q270.15 509.739 270.118 510.638Q270.086 511.536 270.009 512.432Q269.932 513.327 269.81 514.218Q269.689 515.109 269.524 515.992Q269.358 516.876 269.149 517.75Q268.939 518.624 268.687 519.487Q268.434 520.349 268.139 521.199Q267.844 522.048 267.507 522.881Q267.169 523.714 266.791 524.53Q266.413 525.345 265.995 526.141Q265.576 526.936 265.119 527.71Q264.661 528.484 264.166 529.234C257.994 538.649 249.207 543.934 238.367 546.235C230.199 547.348 220.805 544.69 214.075 540.033C205.692 534.233 199.604 525.07 197.867 514.993C196.3 505.897 198.158 496.357 203.555 488.816C209.973 479.849 218.898 474.904 229.631 473.143Z"/>
	<path fill="#00C0FE" d="M302.78 585.681C302.883 585.665 302.985 585.641 303.088 585.632C315.552 584.542 329.43 588.851 339.234 596.525C349.986 604.941 356.466 616.718 358.068 630.26Q358.23 631.544 358.328 632.835Q358.425 634.126 358.459 635.42Q358.492 636.715 358.462 638.009Q358.431 639.303 358.335 640.594Q358.24 641.885 358.081 643.17Q357.922 644.455 357.699 645.73Q357.476 647.005 357.19 648.268Q356.904 649.531 356.555 650.777Q356.207 652.024 355.797 653.252Q355.387 654.48 354.916 655.686Q354.446 656.892 353.916 658.073Q353.386 659.255 352.798 660.408Q352.21 661.561 351.565 662.684Q350.92 663.807 350.221 664.896Q349.521 665.985 348.768 667.038Q348.015 668.092 347.211 669.106C338.148 680.35 324.39 686.795 310.232 688.369C296.649 688.289 284.397 685.685 273.46 677.222Q272.463 676.455 271.506 675.639Q270.549 674.822 269.634 673.959Q268.719 673.096 267.849 672.188Q266.978 671.28 266.155 670.329Q265.331 669.378 264.556 668.388Q263.781 667.397 263.057 666.368Q262.333 665.34 261.661 664.276Q260.989 663.213 260.372 662.117Q259.755 661.021 259.193 659.895Q258.631 658.77 258.127 657.618Q257.623 656.465 257.177 655.289Q256.731 654.113 256.345 652.916Q255.959 651.719 255.633 650.504Q255.307 649.289 255.043 648.059Q254.779 646.829 254.577 645.588Q254.375 644.346 254.235 643.096C252.602 629.339 256.158 615.601 264.811 604.699C274.116 592.975 288.279 587.424 302.78 585.681Z"/>
	<path fill="#00C0FE" d="M505.081 85.7538C544.537 84.0187 588.418 90.4731 626.234 101.613Q631.349 103.152 636.426 104.815Q641.502 106.478 646.537 108.263Q651.571 110.049 656.561 111.956Q661.551 113.863 666.493 115.89Q671.435 117.918 676.327 120.065Q681.218 122.212 686.056 124.477Q690.894 126.741 695.675 129.123Q700.457 131.504 705.179 134.001Q709.902 136.498 714.562 139.109Q719.223 141.719 723.818 144.442Q728.414 147.165 732.943 149.999Q737.471 152.832 741.929 155.775Q746.387 158.718 750.773 161.767Q755.159 164.817 759.469 167.973Q763.779 171.128 768.012 174.387Q772.244 177.646 776.396 181.007Q780.549 184.367 784.618 187.828Q788.688 191.288 792.672 194.846Q796.656 198.404 800.553 202.058Q804.45 205.712 808.257 209.459Q812.064 213.206 815.779 217.045Q819.494 220.883 823.115 224.81Q826.736 228.738 830.26 232.752Q833.785 236.766 837.211 240.864Q840.637 244.963 843.963 249.143Q847.289 253.323 850.512 257.583Q853.735 261.843 856.854 266.18Q859.973 270.516 862.986 274.927Q865.999 279.338 868.904 283.821Q871.809 288.304 874.605 292.856Q877.4 297.408 880.084 302.026Q882.769 306.645 885.34 311.327Q887.319 314.964 889.226 318.639Q891.132 322.314 892.966 326.027Q894.799 329.739 896.558 333.487Q898.317 337.235 900.002 341.018Q901.686 344.8 903.295 348.615Q904.904 352.43 906.437 356.276Q907.97 360.122 909.427 363.998Q910.883 367.874 912.262 371.778Q913.641 375.682 914.943 379.612Q916.244 383.543 917.467 387.499Q918.69 391.454 919.834 395.434Q920.979 399.413 922.044 403.414Q923.109 407.415 924.094 411.436Q925.08 415.458 925.985 419.498Q926.89 423.538 927.715 427.596Q928.54 431.653 929.284 435.726Q930.029 439.799 930.692 443.886Q931.355 447.973 931.937 452.072Q932.519 456.172 933.02 460.282Q933.52 464.392 933.939 468.511Q934.358 472.63 934.695 476.757Q935.032 480.883 935.287 485.016Q935.542 489.148 935.715 493.285Q935.888 497.422 935.978 501.561Q936.069 505.701 936.077 509.841Q936.086 513.982 936.012 518.121Q935.939 522.261 935.783 526.399Q935.627 530.536 935.389 534.67Q935.151 538.803 934.831 542.931Q934.511 547.059 934.109 551.18Q933.707 555.301 933.224 559.413Q932.74 563.525 932.175 567.627C930.253 581.786 927.754 595.61 924.258 609.465C923.338 613.107 922.757 616.809 921.68 620.414C921.461 616.542 922.791 611.924 923.269 608.036C924.439 598.506 925.604 588.834 926.276 579.257Q926.826 571.883 927.117 564.494Q927.408 557.105 927.44 549.71Q927.471 542.316 927.242 534.925Q927.013 527.534 926.525 520.155Q926.037 512.776 925.29 505.42Q924.543 498.063 923.537 490.737Q922.532 483.411 921.27 476.125Q920.008 468.838 918.491 461.601Q917.809 458.37 917.069 455.152Q916.328 451.934 915.53 448.73Q914.731 445.526 913.874 442.337Q913.016 439.148 912.101 435.976Q911.186 432.803 910.214 429.647Q909.241 426.492 908.211 423.354Q907.181 420.217 906.094 417.099Q905.007 413.981 903.864 410.883Q902.72 407.785 901.521 404.709Q900.321 401.632 899.066 398.578Q897.81 395.524 896.499 392.493Q895.189 389.463 893.823 386.456Q892.457 383.45 891.036 380.469Q889.616 377.488 888.142 374.533Q886.667 371.579 885.139 368.651Q883.611 365.724 882.03 362.825Q880.449 359.926 878.816 357.056Q877.182 354.187 875.497 351.347Q873.812 348.508 872.075 345.699Q870.338 342.891 868.55 340.115Q866.762 337.338 864.924 334.595Q863.086 331.852 861.199 329.142Q859.311 326.433 857.374 323.759Q855.438 321.084 853.453 318.445Q851.468 315.806 849.435 313.204Q847.402 310.602 845.322 308.037Q843.243 305.472 841.117 302.946Q838.99 300.419 836.819 297.932Q834.647 295.444 832.43 292.997Q830.213 290.549 827.953 288.143Q825.692 285.736 823.387 283.371Q821.083 281.006 818.736 278.683C800.167 260.489 779.911 244.809 758.207 230.564Q743.115 220.863 726.739 213.536C611.906 161.184 490.047 185.606 399.419 272.136Q390.394 280.654 382.535 290.258C369.619 306.346 359.139 323.655 338.762 331.107Q337.449 331.574 336.114 331.974Q334.78 332.375 333.427 332.709Q332.074 333.043 330.706 333.309Q329.338 333.575 327.959 333.773Q326.579 333.97 325.192 334.099Q323.804 334.228 322.412 334.288Q321.02 334.347 319.626 334.337Q318.233 334.327 316.842 334.248Q315.45 334.169 314.065 334.021Q312.679 333.873 311.303 333.655Q309.926 333.438 308.562 333.153Q307.198 332.868 305.85 332.515Q304.502 332.162 303.173 331.743Q301.844 331.323 300.538 330.838Q299.232 330.353 297.951 329.803Q296.671 329.254 295.419 328.641C279.048 320.817 269.745 307.57 263.866 290.896C264.316 309.83 261.436 327.209 248.339 341.797Q247.41 342.851 246.43 343.859Q245.45 344.866 244.422 345.824Q243.393 346.781 242.319 347.687Q241.244 348.593 240.127 349.445Q239.009 350.296 237.85 351.092Q236.692 351.887 235.496 352.625Q234.3 353.362 233.068 354.04Q231.837 354.718 230.574 355.334Q229.311 355.95 228.019 356.503Q226.727 357.056 225.41 357.544Q224.092 358.033 222.752 358.456Q221.412 358.879 220.052 359.235Q218.693 359.592 217.318 359.88Q215.943 360.169 214.555 360.39Q213.167 360.611 211.77 360.763Q210.373 360.915 208.97 360.998C193.473 361.808 178.418 357.035 166.906 346.476C156.304 336.751 148.765 321.707 148.336 307.209C147.71 286.09 195.987 229.844 211.019 213.905Q213.856 210.9 216.752 207.954Q219.649 205.007 222.605 202.119Q225.56 199.232 228.574 196.405Q231.587 193.577 234.657 190.812Q237.727 188.046 240.852 185.343Q243.978 182.64 247.157 180Q250.336 177.361 253.568 174.786Q256.8 172.211 260.083 169.702Q263.366 167.194 266.7 164.752Q270.033 162.31 273.415 159.936Q276.797 157.561 280.226 155.256Q283.655 152.951 287.13 150.715Q290.606 148.48 294.125 146.315Q297.645 144.15 301.207 142.057Q304.77 139.964 308.374 137.943Q311.978 135.922 315.623 133.974Q319.267 132.027 322.95 130.153Q326.633 128.28 330.353 126.481Q334.073 124.682 337.828 122.959Q341.584 121.236 345.374 119.589Q349.163 117.942 352.986 116.372Q356.808 114.802 360.661 113.309Q364.514 111.817 368.396 110.402Q372.279 108.988 376.189 107.652Q380.099 106.317 384.036 105.061Q387.972 103.804 391.933 102.628Q395.895 101.451 399.879 100.355Q403.863 99.259 407.868 98.2435Q411.873 97.2281 415.898 96.2938Q419.923 95.3595 423.966 94.5067Q428.01 93.6539 432.069 92.883Q436.129 92.1121 440.203 91.4234C461.708 87.8264 483.318 86.3705 505.081 85.7538ZM328.384 234.611C321.768 236.233 316.126 238.657 312.321 244.686Q312.01 245.175 311.725 245.68Q311.44 246.184 311.182 246.703Q310.923 247.221 310.691 247.753Q310.46 248.284 310.255 248.826Q310.051 249.368 309.875 249.92Q309.699 250.473 309.552 251.033Q309.405 251.593 309.286 252.161Q309.168 252.728 309.079 253.301Q308.99 253.873 308.93 254.45Q308.871 255.026 308.841 255.605Q308.811 256.183 308.811 256.763Q308.811 257.342 308.841 257.921Q308.87 258.5 308.93 259.076Q308.989 259.653 309.078 260.225Q309.167 260.798 309.285 261.365Q309.404 261.933 309.551 262.493Q309.697 263.056 309.871 263.611Q310.044 264.166 310.245 264.712Q310.446 265.258 310.674 265.793Q310.902 266.328 311.156 266.852Q311.41 267.375 311.689 267.885Q311.969 268.395 312.273 268.891Q312.578 269.387 312.906 269.867Q313.235 270.346 313.587 270.81Q313.939 271.273 314.313 271.718Q314.687 272.163 315.083 272.589Q315.479 273.015 315.896 273.421Q316.312 273.827 316.749 274.212Q317.185 274.597 317.639 274.96Q318.094 275.323 318.566 275.662Q319.038 276.002 319.526 276.318Q320.015 276.634 320.518 276.926C325.354 279.665 330.142 279.946 335.548 279.462C342.265 277.63 347.856 274.296 351.344 268.035Q351.618 267.55 351.868 267.052Q352.117 266.554 352.342 266.044Q352.566 265.533 352.765 265.013Q352.963 264.492 353.136 263.962Q353.308 263.432 353.454 262.895Q353.599 262.357 353.718 261.812Q353.837 261.268 353.928 260.718Q354.019 260.168 354.083 259.615Q354.146 259.061 354.182 258.505Q354.218 257.949 354.226 257.392Q354.234 256.835 354.214 256.278Q354.195 255.721 354.147 255.166Q354.099 254.611 354.024 254.059Q353.949 253.507 353.846 252.959Q353.743 252.411 353.613 251.869Q353.483 251.328 353.326 250.793Q353.151 250.226 352.948 249.668Q352.744 249.11 352.513 248.563Q352.281 248.017 352.022 247.482Q351.763 246.948 351.477 246.428Q351.192 245.908 350.88 245.402Q350.568 244.897 350.23 244.409Q349.893 243.92 349.531 243.449Q349.17 242.978 348.785 242.526Q348.4 242.075 347.992 241.643Q347.584 241.211 347.155 240.801Q346.726 240.391 346.277 240.002Q345.828 239.614 345.359 239.25Q344.891 238.885 344.404 238.545Q343.918 238.204 343.415 237.889Q342.911 237.574 342.393 237.285Q341.875 236.995 341.342 236.733C337.316 234.724 332.831 234.061 328.384 234.611Z"/>
	<path fill="#00C0FE" d="M587.719 268.716C594.614 268.36 601.567 268.783 608.456 269.114Q614.252 269.345 620.034 269.819Q625.816 270.293 631.572 271.01Q637.329 271.727 643.05 272.685Q648.771 273.643 654.447 274.841Q660.123 276.039 665.744 277.474Q671.365 278.91 676.92 280.58Q682.475 282.25 687.955 284.153Q693.436 286.055 698.831 288.186C776.422 318.303 836.504 381.95 869.731 457.469C902.857 532.757 915.821 629.559 885.207 707.774C872.83 739.395 853.566 765.289 830.942 790.325C786.71 839.273 739.483 874.248 678.912 900.746C687.397 894.742 695.622 887.965 703.578 881.269C720.517 867.01 735.546 850.745 749.399 833.505Q751.658 830.743 753.866 827.939Q756.074 825.135 758.229 822.291Q760.384 819.447 762.486 816.563Q764.588 813.679 766.636 810.756Q768.684 807.834 770.677 804.874Q772.67 801.913 774.608 798.917Q776.546 795.92 778.428 792.888Q780.31 789.856 782.135 786.789Q783.96 783.723 785.728 780.622Q787.495 777.522 789.205 774.39Q790.915 771.258 792.566 768.094Q794.217 764.93 795.809 761.737Q797.401 758.543 798.934 755.32Q800.466 752.097 801.939 748.846Q803.411 745.595 804.822 742.318Q806.234 739.04 807.584 735.737Q808.934 732.434 810.223 729.106Q811.512 725.778 812.738 722.427Q813.965 719.076 815.129 715.702Q816.293 712.329 817.394 708.934Q818.495 705.54 819.533 702.125Q820.57 698.711 821.544 695.278Q822.519 691.844 823.429 688.394Q824.339 684.943 825.184 681.476Q826.03 678.009 826.811 674.527Q827.592 671.045 828.309 667.549Q829.025 664.053 829.676 660.544Q830.327 657.036 830.913 653.515Q831.498 649.995 832.019 646.465Q832.539 642.934 832.993 639.394Q833.448 635.855 833.836 632.307Q834.224 628.76 834.547 625.206C841.163 546.518 821.862 466.571 770.066 405.48C727.837 355.673 667.882 320.975 602.138 315.794C559.066 312.4 514.848 326.765 478.956 350.051C465.309 358.904 452.6 369.351 440.272 379.932C448.681 375.751 456.63 370.532 465.005 366.221C487.856 354.462 513.396 345.99 538.906 342.597C593.472 335.339 650.252 352.097 693.693 385.499C751.251 429.755 784.898 495.533 794.151 566.997C806.395 661.565 775.966 757.851 718.165 832.786Q714.063 838.063 709.782 843.196Q705.501 848.329 701.046 853.312Q696.591 858.295 691.968 863.122Q687.344 867.948 682.558 872.613Q677.771 877.278 672.827 881.776Q667.882 886.274 662.786 890.599Q657.69 894.924 652.449 899.071Q647.207 903.218 641.826 907.183C634.447 912.727 626.591 919.034 618.002 922.538C604.413 928.081 578.47 931.789 563.272 933.725Q559.048 934.273 554.814 934.735Q550.58 935.197 546.337 935.572Q542.094 935.947 537.845 936.235Q533.596 936.524 529.341 936.725Q525.087 936.927 520.829 937.041Q516.571 937.156 512.312 937.184Q508.053 937.211 503.794 937.152Q499.535 937.092 495.279 936.946Q491.022 936.799 486.769 936.566Q482.516 936.333 478.269 936.012Q474.022 935.692 469.782 935.285Q465.543 934.878 461.312 934.385Q457.081 933.891 452.862 933.312Q448.642 932.732 444.435 932.066Q440.229 931.4 436.036 930.648Q431.844 929.897 427.668 929.06Q423.492 928.222 419.333 927.3Q415.175 926.378 411.037 925.371Q406.898 924.363 402.781 923.272Q398.664 922.181 394.57 921.005Q390.477 919.83 386.408 918.571Q382.339 917.313 378.296 915.971Q374.254 914.63 370.24 913.206Q366.225 911.782 362.241 910.276Q358.257 908.771 354.304 907.184Q350.351 905.597 346.432 903.93Q342.513 902.263 338.628 900.516Q334.744 898.77 330.896 896.944Q327.047 895.118 323.238 893.214Q319.428 891.31 315.657 889.328Q311.887 887.347 308.158 885.289Q304.429 883.231 300.743 881.097C287.881 873.705 274.579 866.24 262.829 857.159Q268.631 859.868 274.519 862.383Q280.407 864.898 286.375 867.218Q292.344 869.537 298.386 871.657Q304.427 873.777 310.536 875.696Q316.645 877.615 322.813 879.331Q328.982 881.047 335.204 882.558Q341.427 884.068 347.695 885.372Q353.964 886.676 360.273 887.772Q366.581 888.868 372.923 889.754Q379.264 890.64 385.631 891.316Q391.998 891.992 398.384 892.457Q404.77 892.922 411.168 893.175Q417.566 893.428 423.969 893.47Q430.372 893.511 436.773 893.34Q443.173 893.17 449.565 892.787Q455.957 892.405 462.332 891.811C478.351 890.198 494.295 887.744 509.842 883.485C571.524 868.128 631.066 831.921 670.818 782Q672.605 779.792 674.336 777.54Q676.068 775.288 677.743 772.994Q679.418 770.7 681.036 768.365Q682.653 766.03 684.212 763.655Q685.771 761.281 687.271 758.868Q688.771 756.456 690.21 754.007Q691.649 751.558 693.028 749.074Q694.406 746.59 695.722 744.073Q697.038 741.555 698.291 739.006Q699.544 736.457 700.733 733.877Q701.923 731.298 703.048 728.689Q704.173 726.081 705.233 723.446Q706.293 720.81 707.287 718.149Q708.281 715.488 709.209 712.804Q710.137 710.119 710.998 707.412Q711.859 704.705 712.652 701.977Q713.445 699.25 714.171 696.503Q714.896 693.757 715.553 690.993Q716.211 688.23 716.799 685.451Q717.387 682.672 717.906 679.879Q718.425 677.086 718.875 674.281Q719.324 671.477 719.704 668.661Q720.084 665.846 720.394 663.023Q720.704 660.199 720.943 657.369Q721.183 654.538 721.352 651.702Q721.521 648.867 721.62 646.028Q721.719 643.189 721.747 640.349Q721.776 637.508 721.733 634.668Q721.691 631.828 721.578 628.989Q721.466 626.151 721.283 623.316Q721.099 620.482 720.846 617.652Q720.593 614.823 720.269 612.001C715.7 572.427 699.339 530.361 671.531 501.253C664.263 493.644 656.174 487.722 647.984 481.223C653.387 487.91 659.073 494.38 663.854 501.543Q665.704 504.37 667.458 507.258Q669.212 510.145 670.868 513.09Q672.524 516.036 674.079 519.035Q675.635 522.034 677.089 525.084Q678.542 528.134 679.892 531.232Q681.242 534.329 682.487 537.47Q683.732 540.611 684.87 543.792Q686.009 546.973 687.039 550.191Q688.069 553.409 688.991 556.659Q689.912 559.91 690.724 563.19Q691.535 566.469 692.235 569.775Q692.936 573.08 693.524 576.407Q694.113 579.734 694.589 583.079Q695.065 586.424 695.428 589.783Q695.792 593.142 696.041 596.512Q696.291 599.881 696.427 603.257C698.76 666.224 674.637 724.156 631.892 769.917C575.024 830.797 493.285 858.239 411.499 860.977C354.703 862.878 298.943 850.209 246.871 828.077C232.134 821.814 216.932 815.57 205.117 804.431C194.764 794.669 185.431 783.476 176.573 772.366C120.54 702.09 91.1247 611.466 88.7276 521.993C90.3303 526.696 90.7509 532.236 91.5112 537.135C92.6658 544.574 93.9021 551.924 95.5531 559.272Q97.1104 566.314 99.0014 573.274Q100.892 580.234 103.113 587.096Q105.333 593.958 107.878 600.706Q110.422 607.454 113.286 614.074Q116.149 620.693 119.324 627.169Q122.499 633.645 125.979 639.962Q129.46 646.279 133.237 652.423Q137.014 658.567 141.079 664.524Q142.973 667.275 144.934 669.978Q146.895 672.682 148.921 675.336Q150.948 677.991 153.038 680.595Q155.129 683.2 157.283 685.752Q159.437 688.305 161.652 690.803Q163.868 693.302 166.144 695.746Q168.42 698.191 170.755 700.578Q173.091 702.966 175.483 705.296Q177.876 707.625 180.325 709.896Q182.774 712.167 185.278 714.377Q187.782 716.587 190.34 718.735Q192.897 720.883 195.506 722.968Q198.115 725.053 200.774 727.073Q203.433 729.094 206.141 731.049Q208.849 733.003 211.604 734.891Q214.359 736.779 217.159 738.599Q219.959 740.42 222.803 742.171Q225.647 743.922 228.533 745.603Q231.419 747.284 234.345 748.893Q237.271 750.503 240.235 752.041Q243.2 753.579 246.201 755.044Q249.203 756.509 252.239 757.9Q255.275 759.291 258.345 760.607Q261.414 761.923 264.515 763.164Q267.615 764.405 270.745 765.57Q273.875 766.734 277.033 767.822Q280.191 768.91 283.374 769.92Q286.557 770.93 289.764 771.862Q292.971 772.794 296.2 773.647Q299.429 774.501 302.678 775.275Q305.927 776.049 309.194 776.743Q312.46 777.438 315.743 778.052C386.186 790.884 456.337 774.286 514.977 733.645C562.99 700.369 602.677 649.186 613.005 590.75C619.166 555.889 614.32 519.12 593.636 489.691C576.617 465.476 549.836 447.926 520.609 442.853C494.314 438.288 468.252 444.825 446.558 460.196Q445.447 460.968 444.356 461.767Q443.265 462.566 442.194 463.392Q441.123 464.219 440.074 465.071Q439.024 465.924 437.995 466.802Q436.967 467.681 435.961 468.585Q434.955 469.489 433.972 470.418Q432.989 471.347 432.029 472.3Q431.07 473.253 430.134 474.23Q429.198 475.206 428.287 476.206Q427.377 477.206 426.491 478.228Q425.605 479.25 424.745 480.294Q423.885 481.338 423.052 482.403Q422.218 483.468 421.412 484.554Q420.605 485.639 419.826 486.745Q419.046 487.85 418.295 488.975Q417.543 490.099 416.82 491.242Q416.097 492.385 415.402 493.545Q414.708 494.706 414.042 495.884Q413.377 497.061 412.741 498.255Q412.105 499.449 411.5 500.658Q410.894 501.867 410.319 503.091Q409.743 504.315 409.199 505.553Q408.654 506.791 408.14 508.043Q407.627 509.294 407.145 510.557Q406.662 511.821 406.212 513.096Q405.761 514.372 405.343 515.658Q404.924 516.944 404.538 518.24Q404.152 519.536 403.798 520.841Q403.444 522.147 403.123 523.461Q402.802 524.775 402.514 526.096Q402.225 527.417 401.97 528.746Q401.715 530.074 401.493 531.408C395.652 567.005 407.624 599.809 428.221 628.397C422.687 623.084 416.545 618.353 410.837 613.213C378.676 584.251 363.402 541.85 361.238 499.437C358.353 442.905 376.322 389.086 414.427 346.934Q416.078 345.113 417.767 343.326Q419.456 341.54 421.181 339.789Q422.906 338.037 424.667 336.322Q426.429 334.607 428.225 332.928Q430.021 331.25 431.851 329.609Q433.682 327.968 435.546 326.365Q437.41 324.762 439.307 323.198Q441.203 321.634 443.132 320.11Q445.061 318.586 447.021 317.102Q448.98 315.617 450.971 314.174Q452.961 312.731 454.98 311.329Q456.999 309.927 459.047 308.567Q461.095 307.207 463.171 305.89Q465.247 304.573 467.349 303.299Q469.452 302.025 471.58 300.794Q473.708 299.564 475.862 298.378Q478.015 297.192 480.193 296.051Q482.37 294.91 484.57 293.814Q486.771 292.718 488.994 291.667Q491.216 290.617 493.46 289.613Q495.704 288.609 497.968 287.651Q500.233 286.694 502.516 285.783Q504.8 284.873 507.102 284.01Q509.403 283.146 511.723 282.331Q514.042 281.516 516.377 280.749Q518.713 279.981 521.064 279.263Q523.415 278.544 525.78 277.874Q528.145 277.204 530.524 276.583Q532.903 275.962 535.294 275.39Q537.685 274.818 540.087 274.296Q542.489 273.774 544.902 273.302Q547.314 272.829 549.736 272.407C562.329 270.209 574.966 269.357 587.719 268.716Z"/>
</svg>
