<?xml version="1.0" encoding="utf-8" ?>
<svg xmlns="http://www.w3.org/2000/svg" xmlns:xlink="http://www.w3.org/1999/xlink" width="1600" height="1600">
	<path fill="#FEAC00" d="M798.151 125.698C799.577 125.456 798.94 125.401 800.397 125.861C811.142 129.256 832.135 144.065 842.233 150.416Q848.695 154.443 855.073 158.601Q861.452 162.759 867.743 167.046Q874.035 171.334 880.238 175.749Q886.442 180.165 892.553 184.706Q898.665 189.247 904.682 193.912Q910.699 198.577 916.62 203.364Q922.541 208.151 928.363 213.058Q934.185 217.965 939.905 222.99Q945.625 228.015 951.241 233.156Q956.858 238.297 962.368 243.552Q967.878 248.806 973.28 254.172Q978.681 259.538 983.972 265.014Q989.263 270.489 994.44 276.072Q999.618 281.654 1004.68 287.341Q1009.74 293.028 1014.69 298.817Q1019.63 304.607 1024.46 310.496C1043.14 333.081 1060.73 356.147 1074.42 382.147C1226.2 391.634 1316.47 450.757 1441.96 525.94Q1441.17 541.841 1439.87 557.709Q1438.57 573.576 1436.76 589.393Q1434.95 605.211 1432.62 620.961Q1430.3 636.711 1427.47 652.377Q1424.63 668.044 1421.3 683.611Q1417.96 699.178 1414.12 714.628Q1410.28 730.079 1405.94 745.397Q1401.6 760.715 1396.77 775.885Q1394.39 783.458 1391.91 790.996Q1389.42 798.534 1386.83 806.035Q1384.23 813.536 1381.53 821Q1378.83 828.464 1376.03 835.888Q1373.22 843.312 1370.3 850.695Q1367.39 858.078 1364.37 865.418Q1361.35 872.759 1358.23 880.056Q1355.11 887.352 1351.88 894.603Q1348.65 901.854 1345.32 909.058Q1341.99 916.262 1338.55 923.418Q1335.12 930.573 1331.58 937.679Q1328.04 944.784 1324.4 951.839Q1320.77 958.893 1317.03 965.894Q1313.29 972.895 1309.45 979.842Q1305.61 986.789 1301.67 993.681Q1297.73 1000.57 1293.7 1007.41Q1289.66 1014.24 1285.53 1021.02Q1281.39 1027.79 1277.16 1034.51Q1272.93 1041.22 1268.61 1047.88Q1264.28 1054.53 1259.86 1061.12Q1255.44 1067.71 1250.92 1074.24Q1246.41 1080.77 1241.8 1087.23Q1237.19 1093.69 1232.49 1100.09Q1227.79 1106.49 1223 1112.81Q1218.2 1119.14 1213.32 1125.4Q1208.44 1131.66 1203.47 1137.84Q1198.5 1144.03 1193.44 1150.15Q1188.38 1156.26 1183.23 1162.31Q1178.09 1168.35 1172.85 1174.32Q1167.62 1180.29 1162.3 1186.18Q1156.99 1192.07 1151.59 1197.89Q1146.18 1203.7 1140.7 1209.44Q1119 1231.75 1096.32 1253.06Q1073.63 1274.37 1050.01 1294.64Q1026.4 1314.91 1001.89 1334.1Q977.381 1353.29 952.035 1371.35C904.434 1405.42 854.479 1438.21 802.711 1465.6L800.758 1466.03C789.969 1463.05 763.827 1445.33 752.587 1438.56Q692.361 1403.05 634.971 1363.12C583.493 1326.84 529.1 1281.61 484.367 1237.32C362.122 1116.28 261.025 955.701 206.947 792.145Q196.492 760.23 188.299 727.662Q180.105 695.093 174.213 662.031C165.949 617.034 160.397 571.523 160.157 525.723C178.667 513.207 198.514 502.297 217.804 491.003C299.084 443.417 428.164 374.46 524.388 381.223Q529.245 373.224 534.319 365.361Q539.393 357.498 544.68 349.777Q549.967 342.056 555.463 334.482Q560.958 326.908 566.66 319.487Q572.361 312.066 578.262 304.804Q584.164 297.542 590.262 290.443Q596.36 283.345 602.65 276.416Q608.94 269.487 615.417 262.733Q621.893 255.979 628.552 249.404Q635.211 242.829 642.048 236.439Q648.884 230.049 655.893 223.848Q662.901 217.647 670.076 211.64Q677.252 205.633 684.589 199.824Q691.925 194.015 699.418 188.409Q706.911 182.803 714.555 177.404Q722.198 172.005 729.986 166.817C752.061 151.932 775.001 138.802 798.151 125.698ZM526.803 474.546C516.806 475.341 506.736 476.127 496.9 478.156C495.79 495.857 494.954 513.403 495.633 531.138C500.545 659.445 555.598 783.392 639.949 879.17C740.25 993.059 888.581 1088.43 1043.3 1098.05C1058.11 1098.97 1072.66 1099.01 1087.48 1098.29Q1098.51 1097.32 1109.57 1096.82C1113.21 1079.54 1116.34 1062.56 1116.98 1044.85C1120.18 955.916 1081.22 863.226 1033.47 790.035C951.648 664.626 834.228 558.704 692.799 505.753C669.415 496.998 646.124 489.098 621.664 483.983C590.584 477.483 558.644 472.645 526.803 474.546ZM408.209 515.532C359.687 536.949 316.365 564.421 272.151 593.446C276.169 623.924 280.027 654.477 287.667 684.308C303.775 747.21 338.786 805.798 390.538 845.713C403.336 855.584 416.791 863.51 431.76 869.595C436.481 850.963 440.95 831.072 450.566 814.252C470.209 844.354 485.887 878.063 509.312 905.488C482.881 968.402 477.388 1024.86 485.109 1092.46C537.793 1098.69 588.278 1098.95 639.745 1084.39C651.505 1081.06 662.822 1076.72 674.357 1072.73C703.27 1096.01 732.686 1115.99 765.734 1132.98C755.944 1138.65 744.78 1142.13 734.048 1145.6Q706.639 1154.68 678.453 1160.94C665.493 1163.8 652.133 1165.72 639.318 1169.08C645.42 1199.77 662.166 1222.58 682.138 1245.78C711.215 1277.57 758.904 1327.22 800.486 1340.12C855.659 1314.39 929.715 1247.77 950.559 1189.8Q952.585 1184.25 953.947 1178.5Q955.31 1172.75 955.99 1166.88C917.309 1159.29 881.231 1146.42 845.151 1130.69Q839.195 1128.09 833.285 1125.39Q827.375 1122.69 821.513 1119.88Q815.651 1117.07 809.839 1114.17Q804.027 1111.26 798.266 1108.25Q792.505 1105.24 786.798 1102.14Q781.091 1099.03 775.439 1095.82Q769.786 1092.61 764.191 1089.31Q758.595 1086 753.058 1082.6Q747.521 1079.2 742.044 1075.7Q736.568 1072.2 731.153 1068.61Q725.737 1065.02 720.386 1061.33Q715.034 1057.64 709.748 1053.86Q704.461 1050.09 699.241 1046.21Q694.021 1042.34 688.87 1038.38Q683.718 1034.42 678.637 1030.37Q673.555 1026.32 668.544 1022.18Q663.534 1018.04 658.597 1013.82Q653.659 1009.59 648.796 1005.28Q643.933 1000.97 639.146 996.573Q634.359 992.178 629.649 987.701Q624.939 983.223 620.308 978.664Q615.677 974.104 611.126 969.465Q606.575 964.826 602.106 960.108Q597.637 955.391 593.25 950.596Q588.864 945.8 584.562 940.93Q580.26 936.059 576.043 931.114Q571.827 926.169 567.697 921.151Q563.567 916.133 559.525 911.045Q555.484 905.956 551.531 900.797Q547.579 895.638 543.717 890.411Q539.855 885.185 536.085 879.891Q532.315 874.598 528.638 869.24Q524.165 862.705 519.844 856.069Q515.522 849.433 511.355 842.699Q507.187 835.965 503.176 829.137Q499.165 822.309 495.312 815.39Q491.459 808.471 487.767 801.466Q484.074 794.46 480.544 787.371Q477.014 780.282 473.648 773.114Q470.282 765.946 467.082 758.702Q463.882 751.458 460.849 744.143Q457.817 736.827 454.954 729.443Q452.091 722.06 449.398 714.612Q446.706 707.165 444.186 699.657Q441.666 692.15 439.32 684.586Q436.973 677.023 434.802 669.407Q432.63 661.792 430.634 654.128Q428.639 646.465 426.82 638.757Q421.471 616.677 417.783 594.259Q414.096 571.841 412.09 549.211C411.575 543.347 411.498 519.427 408.961 515.677L408.209 515.532ZM799.53 256.183C745.121 285.891 710.217 308.478 664.885 351.829C650.754 365.342 636.591 379.322 625.21 395.293C762.663 434.805 887.431 505.008 989.344 605.862C1018.67 634.884 1045.72 665.291 1069.43 699.081C1072.34 692.742 1075.01 686.406 1077.43 679.859C1102.35 609.257 1112.9 550.579 1102.96 475.941C1050.39 466.874 965.452 477.362 915.821 495.858C890.89 475.949 862.976 461.37 836.647 443.559Q844.814 439.443 853.112 435.6Q861.411 431.757 869.833 428.192Q878.255 424.627 886.79 421.343Q895.325 418.059 903.965 415.06Q912.605 412.061 921.339 409.351Q930.073 406.64 938.893 404.221Q947.713 401.802 956.607 399.677Q965.502 397.552 974.463 395.723C935.689 342.272 882.807 299.324 824.742 268.245C818.013 264.643 809.273 256.947 801.545 256.175C800.418 256.063 800.478 256.094 799.53 256.183ZM1187.6 516.12C1186.97 599.981 1172.46 663.254 1138.73 739.988C1133.21 752.54 1125.62 764.045 1120.09 776.533C1130.54 795.822 1140.73 815.567 1149.7 835.59C1154 845.196 1156.91 856.029 1161.94 865.212C1163.23 867.565 1164.68 869.273 1167.38 870.041C1176.91 872.761 1194.79 860.643 1202.26 855.591C1211.45 849.389 1220.08 842.299 1228.4 834.995C1239.07 824.974 1249.49 814.941 1258.64 803.464C1306.51 743.428 1319.82 667.101 1329.65 593.25C1283.73 564.264 1238.37 536.015 1187.6 516.12Z"/>
	<path fill="#FEAC00" d="M680.244 538.991C709.853 549.08 737.918 565.525 764.624 581.539C750.922 593.004 734.967 602.655 720.897 613.993Q706.187 625.852 692.083 638.426Q677.98 651.001 664.518 664.26Q651.056 677.519 638.269 691.43Q625.482 705.341 613.402 719.87C605.648 727.69 599.179 738.002 592.713 746.894C577.262 718.281 565.302 690.051 556.35 658.766C562.562 650.608 570.085 643.039 577.022 635.482C609.161 600.471 645.252 570.926 680.244 538.991Z"/>
	<path fill="#FEAC00" d="M1006.03 820.719C1013.47 825.313 1043.21 888.389 1048.12 898.897C1022.69 932.359 992.344 964.328 961.596 992.913C947.254 1006.25 931.796 1018.38 917.701 1031.98C907.697 1028.34 897.905 1024.06 888.081 1019.96C869.145 1011.55 849.424 1002.62 831.847 991.607C902.575 938.632 951.479 889.942 1006.03 820.719Z"/>
	<path fill="#FEAC00" d="M791.719 708.055C810.019 707.115 828.063 710.68 843.537 720.759C861.156 732.235 874.396 750.758 878.586 771.447Q878.791 772.46 878.97 773.479Q879.15 774.497 879.304 775.519Q879.459 776.541 879.588 777.567Q879.717 778.593 879.821 779.621Q879.925 780.65 880.004 781.681Q880.082 782.711 880.136 783.744Q880.189 784.776 880.217 785.81Q880.244 786.843 880.247 787.877Q880.249 788.911 880.226 789.944Q880.203 790.978 880.154 792.011Q880.106 793.043 880.032 794.075Q879.958 795.106 879.859 796.135Q879.759 797.164 879.635 798.19Q879.51 799.216 879.36 800.239Q879.211 801.262 879.036 802.281Q878.861 803.3 878.661 804.314Q878.461 805.329 878.236 806.338Q878.011 807.347 877.761 808.35Q877.512 809.353 877.238 810.35Q876.963 811.347 876.665 812.337Q876.366 813.326 876.043 814.308Q875.72 815.29 875.373 816.264Q875.026 817.238 874.655 818.203Q874.284 819.168 873.889 820.124Q873.495 821.079 873.077 822.025Q872.659 822.97 872.218 823.905Q871.777 824.84 871.313 825.764Q870.849 826.688 870.362 827.6Q869.876 828.512 869.367 829.412Q868.858 830.312 868.327 831.199Q867.796 832.086 867.243 832.96Q866.691 833.834 866.117 834.694C852.547 854.746 832.722 865.819 809.281 870.277C787.22 871.023 768.742 867.197 750.888 853.533C733.84 840.486 722.549 821.599 719.83 800.243C717.064 778.523 722.616 756.616 736.2 739.354Q736.83 738.55 737.48 737.761Q738.13 736.972 738.799 736.2Q739.469 735.427 740.156 734.672Q740.844 733.916 741.551 733.177Q742.257 732.439 742.981 731.717Q743.705 730.996 744.447 730.293Q745.188 729.59 745.947 728.905Q746.705 728.221 747.481 727.555Q748.256 726.889 749.047 726.242Q749.839 725.595 750.646 724.968Q751.453 724.341 752.275 723.734Q753.097 723.127 753.934 722.54Q754.77 721.954 755.621 721.388Q756.472 720.822 757.337 720.277Q758.201 719.732 759.079 719.208Q759.956 718.685 760.847 718.183Q761.737 717.681 762.639 717.201Q763.542 716.721 764.455 716.264Q765.369 715.806 766.294 715.371Q767.219 714.936 768.154 714.524Q769.089 714.112 770.034 713.722Q770.979 713.333 771.933 712.968Q772.887 712.602 773.85 712.259Q774.813 711.917 775.784 711.599Q776.755 711.28 777.734 710.985Q778.712 710.691 779.698 710.42Q780.683 710.15 781.675 709.903Q782.667 709.657 783.665 709.435Q784.662 709.214 785.665 709.016Q786.667 708.819 787.675 708.646Q788.682 708.474 789.693 708.326Q790.704 708.178 791.719 708.055Z"/>
</svg>
