<?xml version="1.0" encoding="utf-8" ?>
<svg xmlns="http://www.w3.org/2000/svg" xmlns:xlink="http://www.w3.org/1999/xlink" width="1600" height="1600">
	<path fill="#FE6642" d="M432.918 999.129C439.917 1005.61 445.536 1014.43 451.305 1022.04Q463.076 1037.86 476.659 1052.15C505.566 1082.09 538.599 1107.34 566.724 1138.16C546.997 1145.9 526.589 1152.23 506.523 1159.07L400.522 1195.13Q350.544 1213.07 300.049 1229.51C318.946 1195.71 338.958 1162.64 358.127 1129.01C382.895 1085.56 406.849 1041.85 432.918 999.129Z"/>
	<path fill="#FE6642" d="M381.219 253.284C399.526 260.071 427.459 281.859 445.746 292.887C504.867 328.54 564.588 363.253 623.417 399.387C604.18 423.08 582.185 445.163 561.544 467.667Q530.782 500.744 497.775 531.581C456.62 439.762 421.44 345.478 381.219 253.284Z"/>
	<path fill="#FE6642" d="M1170.01 998.925C1177.75 1005.11 1205.21 1059.03 1213.01 1072.7Q1258.79 1151.97 1303.63 1231.78C1267.93 1221.36 1232.73 1208.57 1197.38 1196.99C1179.97 1190.2 1161.45 1185 1143.69 1179.15Q1086.68 1160.36 1029.48 1142.16C1046.31 1121.57 1066.81 1104.32 1086.22 1086.27C1116.01 1058.58 1144.59 1030.73 1170.01 998.925Z"/>
	<path fill="#FE6642" d="M1218.74 249.208C1218.83 257.24 1180.01 344.312 1173.82 359.565C1161.64 389.589 1150.27 419.939 1138.24 450.023C1127.56 476.722 1116.25 503.146 1105.94 529.997C1080.39 513.25 1058.81 492.664 1037.55 470.864C1015.24 448.714 995.771 423.782 977.587 398.21C1005.18 380.953 1033.52 364.875 1061.3 347.919Q1140.63 299.542 1218.74 249.208Z"/>
	<path fill="#FE6642" d="M800.321 106.017C804.386 112.17 809.964 144.646 812.471 153.827Q819.186 177.925 826.974 201.698C864.09 313.728 946.643 479.318 1039.28 553.693C1102.28 604.265 1197.44 634.134 1276.05 647.249Q1300.46 651.179 1325.06 653.634Q1349.66 656.089 1374.37 657.059C1402.78 658.351 1430.15 659.013 1458.49 655.951L1448.42 662.362C1339.3 732.286 1244.87 823.061 1160.82 921.163Q1141.85 943.383 1123.58 966.179C1115.08 976.935 1106.98 988.079 1098.15 998.561C1084.49 1014.77 1067.59 1027.8 1051.67 1041.66Q1029.93 1060.61 1010.31 1081.75C902.802 1198.84 835.472 1337.18 801.593 1492.02C801.385 1492.89 800.908 1493.7 800.525 1494.51C797.145 1491.18 781.83 1424.61 778.683 1414.18C763.196 1362.89 743.657 1312.35 717.828 1265.34Q710.625 1251.93 702.971 1238.78Q695.316 1225.63 687.219 1212.74Q679.123 1199.86 670.593 1187.25Q662.063 1174.65 653.11 1162.35Q644.157 1150.04 634.791 1138.04Q625.425 1126.05 615.657 1114.38Q605.889 1102.71 595.73 1091.38Q585.571 1080.05 575.033 1069.07C552.559 1045.99 527.083 1025.92 505.249 1002.25C489.602 985.281 475.685 966.843 460.93 949.117Q421.929 902.065 380.223 857.393C354.674 830.412 327.422 805.238 299.818 780.395Q260.065 744.136 217.918 710.691C194.414 692.354 169.61 675.842 145.92 657.756C237.461 659.422 319.496 650.933 408.224 627.54C448.604 616.894 490.255 603.41 525.826 581.015C610.276 527.843 705.932 370.337 744.82 279.402C768.908 223.077 786.522 165.615 800.321 106.017ZM729.945 517.494C650.309 529.56 584.219 561.646 535.542 627.604C487.373 692.876 469.664 769.964 481.859 849.984C493.669 927.478 533.277 997.011 596.891 1043.59C666.94 1094.89 759.405 1122.44 845.976 1108.88C929.518 1095.79 1013.94 1050.92 1064.29 981.834C1111.78 916.663 1131.26 829.18 1118.71 749.789C1107.32 677.782 1066.88 615.481 1008.05 572.967Q1004.96 570.732 1001.82 568.569C958.815 543.283 917.85 527.523 869.117 517.016L870.014 517.589C877.425 522.255 885.954 525.369 893.864 529.106C901.74 532.827 909.319 537.272 916.8 541.726C960.039 567.47 1004 603.302 1030.2 646.814C1042.94 667.97 1051.68 691.256 1057.41 715.223C1073.37 781.998 1063.28 858.904 1027.09 917.616C991.426 975.465 927.122 1020.24 861.28 1035.69Q858.074 1036.46 854.85 1037.15Q851.626 1037.84 848.386 1038.45Q845.146 1039.06 841.892 1039.59Q838.637 1040.12 835.371 1040.57Q832.104 1041.02 828.828 1041.39Q825.551 1041.75 822.267 1042.04Q818.982 1042.33 815.691 1042.53Q812.401 1042.74 809.106 1042.86Q805.811 1042.98 802.514 1043.02Q799.217 1043.06 795.92 1043.02Q792.623 1042.98 789.329 1042.86Q786.034 1042.74 782.743 1042.53Q779.452 1042.33 776.168 1042.04Q772.883 1041.75 769.606 1041.39Q766.33 1041.02 763.063 1040.57Q759.797 1040.12 756.543 1039.59Q753.288 1039.06 750.048 1038.45Q746.808 1037.84 743.584 1037.15Q740.36 1036.46 737.154 1035.69Q733.948 1034.92 730.763 1034.07Q727.577 1033.22 724.413 1032.29Q721.249 1031.36 718.11 1030.36Q714.97 1029.35 711.856 1028.27Q708.743 1027.18 705.657 1026.02Q702.571 1024.86 699.515 1023.62Q696.459 1022.39 693.434 1021.07Q690.41 1019.76 687.419 1018.37Q684.428 1016.99 681.473 1015.52Q678.517 1014.06 675.599 1012.53Q672.68 1010.99 669.801 1009.39Q666.921 1007.78 664.083 1006.1Q661.244 1004.43 658.448 1002.68C601.191 967.097 556.678 908.555 541.416 842.587Q540.7 839.436 540.06 836.269Q539.42 833.101 538.858 829.919Q538.296 826.737 537.811 823.543Q537.326 820.348 536.919 817.142Q536.513 813.937 536.184 810.722Q535.855 807.508 535.604 804.286Q535.354 801.065 535.182 797.838Q535.01 794.611 534.916 791.381Q534.823 788.151 534.808 784.92Q534.793 781.689 534.857 778.458Q534.92 775.227 535.062 771.999Q535.205 768.771 535.425 765.547Q535.646 762.324 535.945 759.106Q536.244 755.889 536.622 752.679Q536.999 749.47 537.454 746.271Q537.909 743.072 538.442 739.885Q538.975 736.698 539.585 733.525Q540.195 730.352 540.883 727.194Q541.57 724.037 542.334 720.897Q543.098 717.757 543.938 714.637Q544.778 711.517 545.693 708.418Q546.609 705.319 547.6 702.244Q548.591 699.168 549.656 696.117Q550.721 693.067 551.861 690.043Q553 687.019 554.212 684.024Q555.425 681.029 556.71 678.064Q557.994 675.099 559.351 672.166Q560.708 669.234 562.135 666.335Q563.563 663.436 565.061 660.573Q566.558 657.709 568.125 654.883Q569.692 652.057 571.327 649.27Q572.962 646.483 574.665 643.737C602.638 599.137 645.467 563.329 691.512 538.464C698.807 534.525 726.637 522.104 730.544 517.522L729.945 517.494ZM798.683 419.993C795.477 482.535 768.243 583.382 720.731 626.334C707.445 638.345 691.642 646.993 677.598 658.004C644.697 683.8 622.231 724.192 619.841 766.141C617.119 813.889 641.521 865.514 672.859 900.47C694.985 925.151 721.293 941.861 752.519 952.647C719.075 930.752 693.462 901.76 684.986 861.723C679.151 834.163 682.578 804.79 698.125 780.937C708.099 765.637 721.121 752.368 732.506 738.128C766.309 695.842 791.94 648.928 800.042 594.713L800.612 592.487L801.297 592.877C803.616 601.725 804.71 610.788 807.202 619.635C814.161 644.341 826.05 668.943 839.238 690.91C872.929 747.03 923.844 777.1 913.948 850.59C911.412 869.423 906.191 888.328 896.616 904.857C884.415 925.919 865.603 940.414 846.142 954.315C894.5 935.3 936.203 905.71 957.441 856.52C976.739 811.823 979.316 758.14 961.231 712.609C936.71 650.877 885.814 642.614 854.324 591.389C830.331 552.359 814.814 507.134 805.739 462.405C803.688 452.301 802.062 427.106 798.683 419.993Z"/>
</svg>
