<?xml version="1.0" encoding="utf-8" ?>
<svg xmlns="http://www.w3.org/2000/svg" xmlns:xlink="http://www.w3.org/1999/xlink" width="1600" height="1600">
	<path fill="#7EFEFD" d="M1077.54 1079.6C1089.34 1080.28 1101.17 1082.56 1112.94 1083.78C1132.5 1085.82 1151.44 1085.96 1171.08 1085C1180.77 1120.8 1187.95 1157.03 1194.84 1193.45C1184.79 1193.93 1171.73 1189.61 1161.82 1187.49Q1122.97 1179.19 1084.28 1170.13C1083.87 1157.42 1084.15 1144.74 1083.47 1132.03C1082.53 1114.4 1080.19 1097.04 1077.54 1079.6Z"/>
	<path fill="#7EFEFD" d="M523.737 1075.91L525.464 1076.03C527.374 1080.28 520.615 1099.64 519.745 1105.67C516.411 1128.79 514.901 1151.38 516.981 1174.73C480.368 1183.28 443.299 1188.21 406.421 1195.25L403.867 1195.62L402.863 1194.74C403.291 1181.88 407.646 1168.4 410.287 1155.83Q417.715 1121.01 424.065 1085.98C458.604 1086.7 490.21 1084.16 523.737 1075.91Z"/>
	<path fill="#7EFEFD" d="M405.998 404.489C442.461 411.244 479.402 415.31 515.506 424.002C518.288 458.601 521.273 492.844 525.975 527.262C494.249 518.316 460.79 516.358 428.037 514.502C422.28 477.562 411.599 441.584 405.998 404.489Z"/>
	<path fill="#7EFEFD" d="M1194.87 403.459C1196.43 403.433 1195.61 403.296 1197.3 404.057C1200.81 413.762 1178.63 504.779 1173.35 520.125C1139.01 517.896 1103.94 520.121 1070.53 528.577C1069.24 528.858 1068.64 528.89 1067.38 528.785C1070.46 520.89 1073.91 513.137 1076.44 505.033C1084.28 479.894 1086.31 452.587 1087.48 426.403C1122.61 416.519 1158.49 407.219 1194.87 403.459Z"/>
	<path fill="#7EFEFD" d="M733.985 831.052C734.566 839.436 732.157 848.499 731.429 856.909C728.494 890.797 731.201 918.433 749.666 947.576C717.701 934.296 679.269 920.255 644.535 929.107C631.783 932.357 617.66 939.848 610.945 951.621C607.471 957.71 606.608 965.45 608.572 972.175C611.196 981.158 618.804 987.279 626.824 991.398C661.299 1009.11 706.071 1009.11 744.026 1011.18C762.136 1012.16 780.335 1013.63 798.474 1013.78C816.402 1013.93 834.499 1012.79 852.419 1012.15C886.05 1010.96 920.999 1009.36 953.246 998.826C967.759 994.083 986.994 985.729 993.938 971.029C996.524 965.555 996.715 959.533 994.461 953.908C990.753 944.655 981.94 938.167 972.979 934.445C934.86 918.612 887.064 933.054 851.065 948.222C856.087 941.123 860.573 934.097 863.857 926.012C873.486 902.305 874.561 870.882 872.544 845.559C891.908 867.781 906.651 893.77 926.533 915.41C941.042 916.762 955.532 919.309 969.008 925.035C1019.7 946.575 1049.05 1021.84 1068.69 1069.79C1053.07 1064.57 1037.83 1057.93 1022.3 1052.38C979.37 1037.06 918.781 1019.46 873.312 1021.93C897.018 1076.72 925.88 1130.18 964.802 1175.8C974.39 1187.03 984.467 1198.62 996.933 1206.73C1013.71 1217.64 1033.93 1224.31 1052.93 1230.32Q1062.84 1233.49 1072.84 1236.36Q1082.84 1239.24 1092.93 1241.82Q1103.01 1244.41 1113.16 1246.69Q1123.31 1248.98 1133.52 1250.97Q1143.74 1252.97 1154 1254.66Q1164.27 1256.35 1174.58 1257.75Q1184.9 1259.14 1195.25 1260.24Q1205.59 1261.33 1215.97 1262.12C1138.54 1330.43 1029.09 1380.26 928.343 1400.65C967.65 1363.31 991.574 1299.31 1005.38 1247.84C1007.11 1240.94 1008.92 1234.09 1009.91 1227.03L985.933 1214.05C970.264 1277.32 945.185 1338.34 904.288 1389.67C884.512 1414.49 862.655 1437.12 844.283 1463.14C832.27 1480.15 821.99 1498.23 812.28 1516.63C808.113 1524.53 804.767 1533.43 799.981 1540.87C782.865 1500.92 757.611 1463.09 729.495 1430.08C712.769 1410.44 694.605 1391.92 679.334 1371.08C644.878 1324.07 625.836 1268.77 613.784 1212.27C605.812 1217.07 597.676 1221.37 589.36 1225.53C596.296 1267.46 611.089 1312.15 632.296 1349.07C642.901 1367.53 655.43 1384.67 667.988 1401.82C559.032 1376.2 470.721 1335.58 388.188 1258.43Q394.299 1258.41 400.407 1258.24Q406.515 1258.06 412.617 1257.73Q418.718 1257.4 424.81 1256.91Q430.901 1256.43 436.978 1255.78Q443.054 1255.14 449.113 1254.34Q455.171 1253.55 461.207 1252.59Q467.243 1251.64 473.252 1250.53Q479.262 1249.43 485.241 1248.17Q491.221 1246.91 497.166 1245.49Q503.111 1244.08 509.018 1242.52Q514.925 1240.95 520.79 1239.24Q526.655 1237.52 532.474 1235.66Q538.294 1233.79 544.063 1231.78Q549.833 1229.77 555.549 1227.61Q561.265 1225.45 566.925 1223.14Q572.584 1220.84 578.182 1218.39C589.745 1213.22 600.63 1206.9 610.434 1198.84C657.645 1160.05 706.035 1076.86 727.672 1020.21C669.419 1020.84 593.334 1049.06 537.107 1066.38C549.904 1025.66 570.65 983.329 598.506 950.747C620.332 925.219 640.488 918.055 673.246 915.552Q677.909 910.971 682.372 906.195Q686.835 901.419 691.09 896.456Q695.345 891.493 699.383 886.353Q703.422 881.214 707.238 875.906Q711.053 870.598 714.638 865.131Q718.223 859.665 721.571 854.051Q724.919 848.437 728.024 842.684Q731.129 836.932 733.985 831.052ZM800.433 1024.04C790.386 1042.01 783.101 1060.8 774.761 1079.54C760.585 1111.41 744.588 1141.9 722.517 1169.04C742.013 1195.97 760.728 1223.2 775.1 1253.3Q781.869 1267.23 787.516 1281.66C791.44 1291.53 794.998 1304.91 801.217 1313.51C816.914 1273.23 833.913 1234.62 857.648 1198.3C864.059 1188.49 870.702 1178.43 878.915 1170.03C856.685 1142.69 843.014 1116.83 829.124 1084.66C820.289 1064.19 812.165 1043.06 800.433 1024.04Z"/>
	<path fill="#7EFEFD" d="M799.38 56.7101C807.718 67.0554 811.974 81.7087 818.01 93.5697C824.717 106.75 832.801 119.066 841.335 131.117C860.353 157.969 883.391 180.811 904.187 206.137C947.786 259.234 971.469 325.624 983.164 392.554C991.333 387.815 999.025 381.749 1006.73 376.259C1002.89 318.09 964.986 239.922 929.437 194.147C942.518 196.98 955.629 199.018 968.586 202.488Q977.14 204.795 985.621 207.354Q994.103 209.913 1002.51 212.722Q1010.91 215.531 1019.22 218.586Q1027.54 221.642 1035.76 224.942Q1043.98 228.242 1052.1 231.783Q1060.23 235.325 1068.24 239.105Q1076.25 242.884 1084.15 246.899Q1092.05 250.914 1099.82 255.161Q1107.6 259.408 1115.24 263.882Q1122.89 268.356 1130.4 273.055Q1137.91 277.753 1145.28 282.672Q1152.65 287.59 1159.87 292.724Q1167.09 297.858 1174.16 303.203Q1181.22 308.548 1188.13 314.099Q1195.03 319.65 1201.77 325.403Q1208.51 331.156 1215.07 337.106C1167.2 338.543 1124.7 346.255 1079.22 361.125C1062.2 366.691 1045.43 372.593 1029.4 380.634C1004.07 393.331 980.356 409.746 961.213 430.737C923.678 471.897 903.927 530.365 890.892 583.509C884.925 607.835 880.381 632.491 874.272 656.787C869.506 675.739 863.345 694.233 857.222 712.777C867.411 699.161 876.176 684.452 886.23 670.698C920.807 623.389 963.041 575.634 1017.37 550.903C1030.99 544.7 1045.39 540.425 1059.87 536.749C1041.46 626.852 984.833 692.394 910.959 743.604C924.98 740.138 938.774 735.403 952.748 731.656C1028.29 711.4 1111.02 689.074 1172.31 638.088Q1175.61 635.383 1178.78 632.531Q1181.96 629.679 1185 626.686Q1188.04 623.693 1190.94 620.565Q1193.84 617.437 1196.6 614.181Q1199.36 610.925 1201.97 607.547Q1204.57 604.169 1207.02 600.676Q1209.48 597.183 1211.77 593.583Q1214.06 589.983 1216.18 586.282C1249.61 527.753 1255.31 448.878 1261.18 383.235C1270.66 393.372 1279.32 404.765 1287.75 415.791Q1295.44 425.803 1302.72 436.121Q1310 446.438 1316.85 457.044Q1323.71 467.65 1330.12 478.526Q1336.53 489.403 1342.5 500.532Q1348.46 511.661 1353.97 523.024Q1359.47 534.387 1364.51 545.965Q1369.55 557.544 1374.11 569.318Q1378.67 581.092 1382.75 593.042C1391.14 617.576 1397.35 642.765 1403.76 667.869C1349.06 634.431 1291.56 606.045 1230.11 587.264Q1224.02 599.692 1217.47 611.887C1293.73 636.306 1351.15 662.792 1414.97 711.664C1454.44 741.891 1492.09 774.52 1535.46 799.198C1520.35 807.863 1505.63 816.86 1491.53 827.105C1465.27 846.181 1440.96 868.039 1415.76 888.469C1353.15 939.231 1295.41 968.465 1217.12 987.033C1223.25 995.505 1228.81 1004.49 1234.66 1013.18C1283.03 997.035 1325.47 980.862 1369.94 955.143C1380.85 948.832 1391.88 942.497 1402.04 935.016C1394.3 957.122 1389.67 980.251 1382.12 1002.5C1357.2 1075.87 1316.25 1157 1262.65 1213.69C1262.47 1159.14 1239.5 1039.04 1207.13 994.455C1155.51 923.362 1034.82 891.523 952.413 878.543C933.809 824.856 909.515 774.418 862.885 739.075C849.734 729.108 835.366 721.229 821.01 713.179C828.089 707.831 834.475 702.339 839.347 694.821C849.491 679.166 851.284 658.739 847.356 640.807C844.01 625.538 835.611 611.106 822.202 602.615C810.988 595.513 799.903 594.573 787.103 597.332C779.405 600.09 771.874 604.447 766.02 610.196C754.349 621.657 749.822 639.047 749.806 654.992C749.78 681.661 759.49 695.33 777.501 713.231C767.112 717.983 756.959 722.737 747.719 729.55C714.825 753.8 685.853 799.549 667.051 835.526C660.568 847.93 655.059 862.761 647.823 874.504L646.989 875.832C574.017 888.418 468.629 919.986 416.518 975.23C362.909 1032.06 340.175 1140.9 342.629 1217.18C326.748 1201.38 313.289 1182.31 300.594 1163.94Q296.079 1157.49 291.717 1150.93Q287.355 1144.38 283.148 1137.72Q278.942 1131.06 274.892 1124.31Q270.843 1117.55 266.954 1110.71Q263.064 1103.86 259.337 1096.92Q255.609 1089.99 252.046 1082.96Q248.482 1075.94 245.085 1068.84Q241.687 1061.73 238.458 1054.55Q235.228 1047.37 232.168 1040.11Q229.108 1032.86 226.219 1025.53Q223.331 1018.2 220.615 1010.81Q217.899 1003.42 215.358 995.968Q212.816 988.514 210.451 981.003Q208.085 973.492 205.896 965.927Q203.708 958.363 201.698 950.749Q199.688 943.135 197.857 935.476C248.447 972.669 311.904 998.508 372.903 1012.37C377.63 1003.67 382.708 995.366 388.037 987.031C327.295 974.431 273.401 953.765 222.436 917.834C182.72 889.834 147.249 856.17 107.393 828.437C91.5738 817.43 74.6029 808.366 57.6995 799.171C68.2268 794.171 78.7422 789.308 88.754 783.31C115.98 766.997 139.894 745.774 164.95 726.438C231.11 675.382 304.808 627.143 388.916 613.696C382.77 604.363 376.824 594.792 369.308 586.487C308.478 602.273 247.309 631.769 196.841 669.183C223.583 559.395 264.045 471.356 340.579 387.091C342.558 401.657 341.892 416.833 343.193 431.528C347.321 478.123 357.599 526.431 378.172 568.693C390.679 594.388 407.535 619.357 429.108 638.221C475.452 678.749 551.957 697.352 609.543 717.038Q636.604 726.332 662.846 737.737C674.094 742.508 685.333 747.854 696.878 751.849C622.495 701.527 567.517 624.639 537.485 540.631C601.162 552.591 658.057 601.486 699.471 649.217C713.995 665.956 727.103 683.901 740.546 701.504C732.9 675.568 728.41 648.857 722.3 622.549C708.701 563.986 685.417 481.978 646.275 435.085C586.738 363.757 477.467 343.736 390.174 335.705C408.635 321.269 426.218 305.695 445.163 291.87C515.008 240.895 584.766 212.818 668.765 194.667C624.142 253.345 607.272 301.849 590.656 372.488C600.673 378.756 609.771 386.084 618.511 394.003C621.216 378.479 623.045 363.023 626.672 347.635C637.265 302.704 659.232 251.816 687.372 215.03C699.109 199.687 713.01 186.153 725.608 171.536C753.724 138.913 783.602 96.8898 799.38 56.7101ZM424.56 723.977C385.215 759.022 352.852 783.951 301.288 799.548C352.108 816.857 387.348 839.406 424.641 878.165C451.425 864.475 478.218 851.107 506.056 839.646C540.51 826.806 575.081 815.874 611.556 810.503C629.673 807.836 648.699 807.836 666.512 804.082C666.713 804.04 666.915 804.004 667.116 803.965C600.118 797.75 542.733 781.7 481.591 753.38C468.701 747.409 456.235 740.579 443.724 733.866C437.621 730.591 431.034 726.302 424.56 723.977ZM1169.53 723.521C1094.21 779.621 1021.16 791.404 930.458 805.437C963.48 808.925 996.993 810.173 1029.69 816.101C1053.71 820.457 1076.63 827.732 1099.42 836.357C1124.95 847.864 1148.3 861.714 1171.99 876.573C1195.48 858.505 1219.11 841.117 1245.22 826.955C1262.07 817.817 1280.11 811.305 1296.17 800.722C1281.16 792.375 1265.5 785.313 1250.42 777.113C1236.96 769.792 1223.81 761.359 1210.84 753.195C1196.55 744.198 1184.43 731.547 1169.53 723.521ZM798.811 294.203C778.871 344.167 758.618 384.503 719.375 422.402C738.078 448.537 754.608 474.968 768.014 504.25Q775.645 520.671 781.333 537.861C785.973 551.464 792.577 585.09 802.249 593.796C808.66 574.092 813.475 553.915 819.974 534.283C832.958 495.062 853.696 454.441 880.927 423.144C861.099 403.855 843.53 383.095 829.635 359.065Q823.033 347.583 817.366 335.611C813.469 327.293 803.089 298.244 798.811 294.203Z"/>
</svg>
