<?xml version="1.0" encoding="utf-8" ?>
<svg xmlns="http://www.w3.org/2000/svg" xmlns:xlink="http://www.w3.org/1999/xlink" width="1600" height="1600">
	<path fill="#30D89F" d="M800.05 365.269C804.02 371.137 806.319 378.915 808.978 385.497C812.762 394.864 816.638 404.074 821.478 412.964C832.586 433.367 845.322 452.818 857.681 472.469C867.369 487.874 877.237 503.183 884.134 520.099C901.132 561.796 898.439 607.538 873.722 645.502C862.884 662.148 849.345 676.836 838.289 693.292C822.947 716.126 811.199 739.827 800.452 765.106L799.799 765.232C794.726 760.005 789.314 743.777 785.812 736.574C782.791 730.359 779.5 724.443 775.942 718.522C769.173 707.257 762.515 695.771 754.876 685.068C740.837 665.399 723.653 646.934 714.593 624.247C708.795 609.729 706.435 594.547 706.235 578.966C705.532 524.211 735.223 487.907 761.197 443.198C775.945 417.812 788.474 392.243 800.05 365.269Z"/>
	<path fill="#30D89F" d="M788.293 166.75C814.313 165.772 841.109 167.441 866.943 170.559Q872.241 171.189 877.527 171.911Q882.813 172.633 888.086 173.447Q893.359 174.261 898.617 175.168Q903.874 176.074 909.115 177.072Q914.357 178.069 919.58 179.159Q924.802 180.248 930.006 181.428Q935.209 182.608 940.39 183.879Q945.572 185.15 950.731 186.511Q955.89 187.872 961.024 189.323Q966.158 190.773 971.266 192.314Q976.374 193.854 981.455 195.483Q986.535 197.112 991.586 198.83Q996.638 200.548 1001.66 202.353Q1006.68 204.159 1011.67 206.051Q1016.66 207.944 1021.61 209.924Q1026.56 211.904 1031.48 213.969Q1036.4 216.035 1041.28 218.187Q1046.17 220.338 1051.01 222.574Q1055.85 224.811 1060.66 227.131Q1065.46 229.452 1070.23 231.856Q1074.99 234.26 1079.71 236.746Q1084.43 239.233 1089.11 241.802Q1093.78 244.371 1098.41 247.021Q1103.04 249.671 1107.63 252.401Q1112.21 255.131 1116.75 257.941Q1121.28 260.751 1125.77 263.64Q1130.25 266.529 1134.69 269.496Q1139.12 272.462 1143.5 275.506Q1147.89 278.549 1152.21 281.669Q1156.54 284.788 1160.81 287.983Q1165.09 291.178 1169.3 294.446Q1173.52 297.715 1177.68 301.057C1197.59 316.799 1219.33 333.62 1235.1 353.728Q1219.73 380.15 1202 405.053C1185.25 388.155 1168.26 371.249 1150.03 355.942Q1146.46 352.938 1142.85 349.995Q1139.23 347.052 1135.57 344.17Q1131.9 341.289 1128.19 338.469Q1124.48 335.65 1120.72 332.893Q1116.96 330.137 1113.15 327.445Q1109.35 324.752 1105.5 322.124Q1101.65 319.497 1097.75 316.934Q1093.86 314.372 1089.92 311.876Q1085.98 309.379 1082 306.95Q1078.02 304.52 1074 302.159Q1069.98 299.797 1065.93 297.503Q1061.87 295.209 1057.77 292.984Q1053.67 290.759 1049.54 288.604Q1045.41 286.449 1041.24 284.363Q1037.07 282.278 1032.86 280.264Q1028.66 278.249 1024.42 276.306Q1020.18 274.363 1015.91 272.491Q1011.64 270.62 1007.34 268.82Q1003.04 267.021 998.711 265.295Q994.38 263.569 990.021 261.916Q985.662 260.263 981.275 258.684Q976.889 257.105 972.476 255.6Q968.064 254.096 963.627 252.666Q959.189 251.236 954.729 249.881Q950.268 248.526 945.785 247.247Q941.302 245.967 936.798 244.764Q932.294 243.56 927.77 242.433Q923.247 241.306 918.705 240.255Q914.163 239.204 909.603 238.23Q905.044 237.256 900.469 236.359Q895.894 235.463 891.305 234.643Q886.716 233.824 882.113 233.082C858.66 229.282 834.983 227.521 811.311 225.765Q791.161 225.319 771.04 226.469Q750.918 227.618 730.95 230.356C625.593 244.826 522.745 289.003 442.553 359.39C426.011 373.909 409.381 389.367 396.062 406.955C385.435 388.677 374.09 371.626 365.521 352.191C386.816 328.633 411.473 308.259 436.738 289.129Q440.499 286.275 444.304 283.48Q448.11 280.685 451.959 277.951Q455.808 275.217 459.7 272.544Q463.591 269.871 467.525 267.259Q471.458 264.648 475.433 262.099Q479.407 259.55 483.421 257.065Q487.435 254.579 491.488 252.157Q495.54 249.735 499.631 247.377Q503.721 245.019 507.849 242.726Q511.976 240.433 516.139 238.206Q520.302 235.978 524.499 233.817Q528.697 231.655 532.928 229.56Q537.159 227.465 541.423 225.437Q545.686 223.41 549.982 221.449Q554.277 219.489 558.602 217.597Q562.928 215.705 567.283 213.881Q571.638 212.057 576.021 210.303Q580.404 208.548 584.815 206.863Q589.225 205.177 593.661 203.562Q598.098 201.946 602.559 200.401Q607.021 198.856 611.506 197.382Q615.991 195.907 620.499 194.503Q625.007 193.1 629.536 191.768Q634.066 190.436 638.616 189.175Q643.166 187.915 647.735 186.726Q652.305 185.538 656.892 184.421Q661.48 183.305 666.084 182.262Q670.689 181.218 675.309 180.247Q679.93 179.276 684.565 178.379Q689.2 177.481 693.849 176.656Q698.498 175.832 703.159 175.081Q707.82 174.33 712.493 173.653C737.571 169.942 762.995 168.151 788.293 166.75Z"/>
	<path fill="#30D89F" d="M1430.12 792.035C1430.52 800.741 1429.94 809.681 1429.68 818.408C1428.87 846.312 1426.54 873.651 1422.13 901.207C1404.06 1014.23 1363.48 1112.57 1289.74 1200.95C1182.16 1329.9 1022.2 1416.8 854.556 1431.97C687.481 1447.09 527.432 1394.28 399.038 1287.09C263.31 1173.77 190.102 1032.26 174.438 856.442C172.808 835.24 172.652 813.99 172.732 792.739C182.485 801.904 190.11 814.084 199.286 823.993C210.602 836.211 223.596 846.55 235.708 857.929Q236.096 863.084 236.583 868.231Q237.07 873.377 237.656 878.514Q238.241 883.65 238.925 888.774Q239.609 893.898 240.391 899.009Q241.173 904.119 242.052 909.213Q242.931 914.307 243.908 919.384Q244.885 924.46 245.959 929.517Q247.033 934.574 248.204 939.609Q249.374 944.644 250.641 949.656Q251.908 954.668 253.27 959.655Q254.633 964.642 256.091 969.602Q257.549 974.562 259.101 979.493Q260.654 984.424 262.3 989.324Q263.947 994.224 265.687 999.092Q267.427 1003.96 269.26 1008.79Q271.094 1013.63 273.019 1018.43Q274.944 1023.22 276.961 1027.98Q278.978 1032.74 281.086 1037.46Q283.193 1042.18 285.391 1046.86Q287.589 1051.54 289.876 1056.18Q292.162 1060.81 294.538 1065.41Q296.913 1070 299.376 1074.54Q301.838 1079.09 304.388 1083.59Q306.937 1088.08 309.572 1092.53Q312.207 1096.98 314.927 1101.38Q317.647 1105.77 320.45 1110.11Q323.253 1114.46 326.139 1118.75Q329.025 1123.04 331.993 1127.27Q334.961 1131.5 338.009 1135.68Q341.057 1139.85 344.185 1143.97Q347.312 1148.09 350.518 1152.14Q353.724 1156.2 357.007 1160.19C452.906 1275.87 595.903 1356.21 746.355 1370.01Q753.393 1370.6 760.444 1371.01Q767.495 1371.43 774.554 1371.67Q781.612 1371.91 788.675 1371.98Q795.738 1372.05 802.8 1371.94Q809.862 1371.84 816.919 1371.56Q823.977 1371.29 831.026 1370.84Q838.074 1370.39 845.109 1369.77Q852.145 1369.14 859.163 1368.35Q866.181 1367.56 873.178 1366.59Q880.175 1365.63 887.146 1364.49Q894.117 1363.35 901.057 1362.05Q907.999 1360.74 914.906 1359.27Q921.813 1357.79 928.681 1356.15Q935.55 1354.5 942.377 1352.69Q949.203 1350.88 955.983 1348.9Q962.763 1346.92 969.493 1344.78Q976.223 1342.63 982.898 1340.32Q989.573 1338.02 996.19 1335.55Q1002.81 1333.08 1009.36 1330.44Q1015.92 1327.81 1022.4 1325.02Q1028.89 1322.23 1035.31 1319.28Q1041.73 1316.33 1048.07 1313.23Q1054.41 1310.12 1060.68 1306.86Q1066.94 1303.6 1073.13 1300.19Q1079.31 1296.78 1085.41 1293.21Q1091.51 1289.65 1097.52 1285.94Q1103.53 1282.23 1109.45 1278.37Q1115.36 1274.52 1121.18 1270.52Q1127.01 1266.52 1132.73 1262.37Q1138.45 1258.23 1144.07 1253.95Q1149.68 1249.67 1155.2 1245.26Q1160.71 1240.84 1166.11 1236.29C1284.53 1137.69 1349.55 1013.25 1363.55 859.918C1389.76 836.708 1408.84 820.337 1430.12 792.035Z"/>
	<path fill="#30D89F" d="M1365.42 181.661C1372.78 186.6 1379.09 197.899 1384.06 205.197C1413.62 248.579 1435.32 295.226 1448.1 346.223C1468.66 428.302 1460.91 519.113 1416.94 592.309C1364.84 679.058 1276.24 742.164 1179.89 771.232C1142.6 782.482 1104.28 788.127 1066.6 797.551C1120.91 803.118 1175.73 800.122 1228.29 784.84C1255.39 776.961 1282.4 767.627 1307.63 754.867C1372.09 722.26 1424.54 667.187 1459.08 604.232C1453.75 645.833 1444.75 684.003 1425.92 721.693C1392.11 789.351 1324.8 847.083 1253.12 870.814C1178.91 895.379 1099.07 879.482 1030.65 845.189C1098.78 899.056 1160.03 917.56 1247.14 911.363C1231.38 919.69 1215.93 927.209 1198.82 932.48C1148.08 948.113 1093.24 946.222 1045.19 922.813C1032.79 916.771 1021.98 907.608 1009.7 901.224C994.151 893.144 977.503 890.588 960.644 896.14Q959.1 896.64 957.583 897.215Q956.066 897.79 954.578 898.439Q953.091 899.089 951.638 899.811Q950.185 900.533 948.769 901.326Q947.354 902.119 945.979 902.98Q944.604 903.842 943.273 904.771Q941.942 905.699 940.659 906.692Q939.376 907.685 938.143 908.741Q936.91 909.796 935.731 910.911Q934.552 912.026 933.429 913.197Q932.307 914.369 931.243 915.595Q930.18 916.82 929.178 918.097Q928.177 919.373 927.239 920.698Q926.302 922.022 925.431 923.391Q924.56 924.761 923.758 926.171Q922.956 927.582 922.224 929.03C914.068 945.263 913.612 964.483 919.375 981.567C927.245 1004.9 946.468 1021.33 968.063 1031.86Q969.696 1032.65 971.348 1033.4Q973 1034.15 974.67 1034.86Q976.34 1035.58 978.027 1036.24Q979.714 1036.91 981.417 1037.54Q983.12 1038.17 984.837 1038.75Q986.555 1039.34 988.287 1039.88Q990.018 1040.43 991.763 1040.93Q993.508 1041.43 995.264 1041.88Q997.02 1042.34 998.787 1042.75Q1000.55 1043.17 1002.33 1043.54Q1004.11 1043.91 1005.89 1044.23Q1007.68 1044.56 1009.47 1044.84Q1011.26 1045.13 1013.06 1045.36Q1014.86 1045.6 1016.67 1045.8Q1018.47 1045.99 1020.28 1046.14Q1022.09 1046.29 1023.9 1046.39Q1025.71 1046.5 1027.53 1046.56Q1029.34 1046.62 1031.15 1046.63Q1032.97 1046.65 1034.78 1046.62Q1036.6 1046.59 1038.41 1046.52Q1040.22 1046.44 1042.04 1046.33Q1043.85 1046.21 1045.65 1046.05Q1047.46 1045.88 1049.26 1045.68Q1051.07 1045.47 1052.86 1045.22Q1054.66 1044.97 1056.45 1044.67Q1058.24 1044.37 1060.03 1044.04Q1061.81 1043.7 1063.58 1043.31Q1065.36 1042.93 1067.12 1042.5Q1068.88 1042.08 1070.64 1041.61Q1072.39 1041.14 1074.13 1040.62Q1075.87 1040.11 1077.6 1039.55Q1079.33 1039 1081.04 1038.4C1074.71 1051.88 1066.7 1064.32 1055.57 1074.37Q1054.61 1075.23 1053.63 1076.07Q1052.64 1076.91 1051.64 1077.72Q1050.64 1078.53 1049.62 1079.32Q1048.6 1080.11 1047.56 1080.88Q1046.52 1081.64 1045.46 1082.38Q1044.4 1083.12 1043.32 1083.83Q1042.25 1084.54 1041.15 1085.23Q1040.06 1085.91 1038.95 1086.57Q1037.84 1087.23 1036.71 1087.86Q1035.59 1088.5 1034.45 1089.1Q1033.31 1089.71 1032.15 1090.28Q1031 1090.86 1029.83 1091.41Q1028.66 1091.95 1027.48 1092.47Q1026.3 1092.99 1025.1 1093.48Q1023.91 1093.98 1022.7 1094.44Q1021.5 1094.9 1020.28 1095.33Q1019.07 1095.76 1017.84 1096.17Q1016.61 1096.57 1015.38 1096.94Q1014.14 1097.31 1012.9 1097.65Q1011.65 1098 1010.4 1098.31Q1009.15 1098.62 1007.89 1098.9Q1006.63 1099.18 1005.36 1099.43Q1004.09 1099.68 1002.82 1099.9Q1001.55 1100.12 1000.27 1100.31Q998.997 1100.5 997.716 1100.66Q996.435 1100.82 995.15 1100.94Q993.866 1101.07 992.578 1101.16Q991.291 1101.26 990.002 1101.32Q988.713 1101.39 987.422 1101.42Q986.132 1101.45 984.841 1101.45Q983.55 1101.45 982.26 1101.42Q980.969 1101.39 979.68 1101.33C934.362 1098.88 895.448 1068.97 866.086 1036.56C882.676 1065.17 902.237 1089.93 930.337 1108.12C973.209 1135.87 1022.07 1145.12 1071.89 1134.61C1050.63 1160.43 1026.33 1177.73 994.126 1187.35C967.341 1195.36 939.363 1193.38 914.666 1179.88C876.39 1158.97 850.39 1115.15 837.618 1074.69C833.934 1063.02 832.231 1050.85 828.832 1039.1C829.478 1062.11 831.517 1084.2 837.092 1106.58C845.67 1140.99 859.636 1178.95 886.872 1202.86C893.657 1208.81 901.197 1213.38 908.906 1218C898.14 1225.23 885.43 1228.86 874.236 1235.28C847.611 1250.55 825.424 1274.76 811.286 1301.91C806.869 1310.4 803.641 1319.44 799.374 1328.02C784.278 1286.38 756.696 1253.47 717.051 1232.93C706.281 1227.35 694.557 1223.85 683.78 1218.29L682.738 1217.75C703.829 1203.8 723.175 1190.05 738.46 1169.43C758.848 1141.93 765.817 1110.71 768.892 1077.23C769.946 1065.76 770.894 1054.44 769.2 1042.98C765.9 1083 740.026 1125.98 712.67 1154.75C692.461 1176.01 666.374 1191.89 636.398 1192.56C593.714 1193.51 557.718 1168.19 528.144 1139.93C561.272 1143.67 597.888 1139.25 629.04 1127.99C672.076 1112.42 709.141 1080.16 728.651 1038.63C718.457 1049.61 707.936 1059.92 696.163 1069.21C670.011 1089.83 638.479 1105.07 604.388 1100.87C564.932 1096 540.74 1067.43 517.772 1037.89C547.489 1045.99 577.705 1047.5 607.689 1039.66C635.484 1032.4 663.893 1015.76 678.53 990.275C687.66 974.381 690.45 955.556 685.454 937.828Q685.055 936.369 684.584 934.932Q684.113 933.495 683.57 932.083Q683.027 930.671 682.415 929.288Q681.802 927.906 681.121 926.555Q680.44 925.205 679.692 923.89Q678.944 922.576 678.132 921.3Q677.319 920.025 676.443 918.791Q675.568 917.558 674.631 916.37Q673.695 915.182 672.701 914.043Q671.706 912.903 670.656 911.815Q669.606 910.727 668.502 909.692Q667.399 908.658 666.245 907.68Q665.091 906.703 663.89 905.784Q662.688 904.865 661.443 904.007Q660.197 903.15 658.91 902.356Q657.622 901.562 656.297 900.833C637.071 890.195 614.11 891.105 595.175 901.836C585.376 907.389 576.569 914.616 566.784 920.259C553.062 928.172 537.629 934.445 522.434 938.771C467.474 954.416 411.753 940.581 363.076 913.39C429.309 915.815 501.304 904.736 552.516 859.276L563.546 848.566C529.846 863.903 494.699 877.203 457.752 881.793C386.688 890.622 318.783 867.128 262.997 823.703Q260.389 821.689 257.824 819.621Q255.258 817.553 252.737 815.432Q250.216 813.31 247.74 811.136Q245.263 808.962 242.834 806.736Q240.404 804.511 238.021 802.235Q235.638 799.959 233.304 797.633Q230.969 795.308 228.684 792.933Q226.399 790.559 224.165 788.138Q221.93 785.716 219.747 783.248Q217.564 780.78 215.433 778.267Q213.302 775.754 211.224 773.196Q209.146 770.639 207.123 768.038Q205.099 765.438 203.13 762.795Q201.162 760.153 199.249 757.469Q197.337 754.786 195.481 752.063Q193.625 749.341 191.827 746.579Q190.029 743.818 188.289 741.02Q186.549 738.222 184.868 735.387Q183.188 732.553 181.567 729.684Q179.946 726.815 178.386 723.913Q176.826 721.01 175.327 718.076Q173.828 715.142 172.391 712.176Q170.954 709.211 169.58 706.216Q168.205 703.221 166.894 700.198Q165.583 697.175 164.336 694.125Q163.088 691.076 161.905 688Q160.722 684.925 159.604 681.825Q158.486 678.726 157.433 675.603Q156.38 672.481 155.393 669.337Q154.406 666.193 153.485 663.03Q152.564 659.866 151.71 656.683Q150.856 653.501 150.069 650.301C146.522 635.752 144.499 621.179 142.654 606.337C149.464 616.713 155.561 627.523 162.562 637.794Q166.739 644.016 171.176 650.054Q175.612 656.094 180.301 661.939Q184.989 667.785 189.921 673.427Q194.853 679.069 200.019 684.497Q205.185 689.925 210.576 695.13Q215.967 700.334 221.574 705.306Q227.181 710.278 232.993 715.008Q238.806 719.738 244.813 724.217C324.217 783.285 444.852 812.031 542.478 797.801C442.909 786.271 341.275 751.191 263.658 686.238C199.472 632.523 152.502 556.247 145.059 471.881Q144.64 467.078 144.339 462.266Q144.037 457.453 143.853 452.635Q143.669 447.817 143.602 442.996Q143.535 438.175 143.586 433.354Q143.637 428.533 143.805 423.714Q143.973 418.895 144.259 414.082Q144.544 409.269 144.947 404.465Q145.35 399.66 145.869 394.866Q146.389 390.073 147.025 385.294Q147.662 380.514 148.414 375.752Q149.167 370.989 150.035 366.247Q150.904 361.504 151.887 356.784Q152.871 352.064 153.969 347.369Q155.068 342.674 156.28 338.008Q157.493 333.341 158.819 328.705Q160.145 324.07 161.583 319.468Q163.021 314.866 164.572 310.3Q166.122 305.735 167.783 301.208Q169.443 296.682 171.214 292.197Q172.985 287.712 174.864 283.272Q176.744 278.832 178.731 274.439Q180.718 270.046 182.811 265.703Q184.905 261.359 187.104 257.068Q189.302 252.777 191.605 248.541Q193.908 244.305 196.313 240.126Q198.718 235.947 201.224 231.828Q203.731 227.71 206.337 223.653Q208.942 219.596 211.646 215.604Q214.35 211.612 217.151 207.687Q219.951 203.762 222.846 199.907Q225.742 196.051 228.73 192.268Q231.718 188.484 234.798 184.774Q234.248 186.435 233.721 188.104C205.158 278.607 206.93 385.82 251.358 471.174C300.355 565.309 377.051 643.313 473.452 688.904C496.56 699.832 520.504 708.322 544.866 715.973C503.681 690.679 463.71 658.237 429.963 623.668C343.144 534.734 307.782 436.376 309.17 312.742C324.092 373.373 347.493 413.448 387.07 461.558Q394.324 470.291 401.867 478.775Q409.41 487.259 417.234 495.484Q425.057 503.71 433.153 511.669Q441.249 519.627 449.607 527.309Q457.966 534.991 466.578 542.388Q475.189 549.784 484.045 556.888Q492.9 563.991 501.989 570.793Q511.079 577.594 520.391 584.087C540.641 597.984 561.739 611.869 582.832 624.47C600.6 635.084 618.885 644.878 636.361 655.969C695.656 693.597 750.327 742.34 781.279 806.431C789.404 823.254 795.43 840.897 801.008 858.697C806.579 839.44 811.983 820.391 820.668 802.236C850.674 739.51 908.712 690.216 966.654 654.142C999.896 633.446 1034.29 614.662 1066.37 592.12C1095.5 571.65 1124.41 550.317 1151.01 526.624C1202.7 480.574 1261.06 411.562 1285.71 346.013C1290.95 332.088 1294.08 317.882 1296.62 303.279C1297.22 340.213 1290.84 375.844 1282.8 411.783C1260.9 509.795 1206.75 602.553 1129.39 667.111C1107.72 685.198 1083.8 700.202 1060.03 715.308C1082.58 707.886 1104.78 699.863 1126.27 689.725Q1130.29 687.828 1134.27 685.855Q1138.24 683.882 1142.19 681.835Q1146.13 679.787 1150.03 677.666Q1153.93 675.545 1157.79 673.351Q1161.66 671.156 1165.48 668.89Q1169.29 666.623 1173.07 664.285Q1176.85 661.947 1180.58 659.538Q1184.31 657.129 1188 654.65Q1191.68 652.172 1195.32 649.624Q1198.96 647.076 1202.55 644.461Q1206.14 641.845 1209.68 639.162Q1213.22 636.479 1216.7 633.73Q1220.19 630.981 1223.63 628.167Q1227.07 625.352 1230.45 622.474Q1233.83 619.595 1237.16 616.654Q1240.49 613.712 1243.76 610.708Q1247.03 607.704 1250.24 604.64Q1253.46 601.575 1256.62 598.45Q1259.77 595.325 1262.87 592.141Q1265.97 588.957 1269 585.716Q1272.04 582.474 1275.01 579.176Q1277.99 575.878 1280.9 572.524Q1283.81 569.171 1286.66 565.763Q1289.51 562.355 1292.29 558.894Q1295.08 555.433 1297.79 551.921Q1300.51 548.408 1303.16 544.845Q1305.82 541.281 1308.4 537.669Q1310.98 534.056 1313.5 530.396Q1316.01 526.735 1318.46 523.028Q1320.91 519.32 1323.28 515.568Q1325.66 511.815 1327.96 508.018Q1330.27 504.221 1332.5 500.382C1377.58 422.754 1394.71 335.051 1380.54 246.298C1377.04 224.394 1371.1 203.073 1365.42 181.661Z"/>
</svg>
