<?xml version="1.0" encoding="utf-8" ?>
<svg xmlns="http://www.w3.org/2000/svg" xmlns:xlink="http://www.w3.org/1999/xlink" width="1600" height="1600">
	<path fill="#91CE00" d="M177.118 732.36C187.361 731.659 198.512 733.224 208.535 735.298C248.548 743.578 280.741 765.022 312.923 788.816C303.889 795.84 294.118 802.183 284.516 808.4C252.884 828.879 221.208 844.03 182.809 845.198C125.724 841.149 88.9819 817.73 45.6357 783.816C88.4933 757.101 125.193 736.204 177.118 732.36Z"/>
	<path fill="#91CE00" d="M1403.48 733.116C1413.93 731.739 1425.66 732.715 1436.07 734.072C1479.57 739.743 1517.58 759.5 1553.1 784.188C1522.34 813.677 1480.69 836.244 1438.76 843.975C1431.22 845.284 1423.92 846.238 1416.25 846.281C1367.5 846.553 1322.27 819.941 1288.51 786.424C1321.49 757.448 1359.32 737.278 1403.48 733.116Z"/>
	<path fill="#91CE00" d="M1369.17 401.524L1370.58 402.814C1373.24 410.316 1373.39 419.374 1373.96 427.29C1376.58 463.507 1373.74 499.534 1360.87 533.81C1336.09 599.826 1299.6 612.03 1241.28 638.649C1233.58 600.618 1230.35 560.584 1243.08 523.219C1263.15 464.262 1315.8 427.781 1369.17 401.524Z"/>
	<path fill="#91CE00" d="M227.132 401.969C234.273 404.191 241.391 407.693 248.211 410.781C286.971 428.328 322.186 454.382 344.488 491.228C370.606 534.381 370.413 585.039 358.582 632.559C357.985 634.493 357.973 635.057 356.458 636.345C355 636.468 353.698 636.532 352.249 636.253C345.191 634.895 338.028 630.737 331.616 627.616C299.888 612.171 273.55 592 254.108 562.128C224.549 516.715 216.167 454.517 227.132 401.969Z"/>
	<path fill="#91CE00" d="M1313.81 852.669C1332 850.986 1352.51 856.198 1369.47 862.331C1440.91 888.171 1466.65 949.843 1496.21 1013.02Q1476.83 1014.22 1457.41 1014.06C1420.69 1011.76 1385.1 1004.85 1353.45 985.012C1306.01 955.271 1286.83 908.754 1274.67 856.585Q1294.2 854.178 1313.81 852.669Z"/>
	<path fill="#91CE00" d="M1437.74 568.28C1456.56 566.265 1476.33 568.428 1495.09 570.161C1479.43 606.622 1468.11 636.788 1441.52 667.635C1411.95 701.93 1373.24 720.805 1328.32 723.995C1308.97 725.168 1289.68 720.557 1271 716.078C1278.72 685.355 1291.74 653.868 1311.92 629.241C1343.37 590.862 1389.4 572.911 1437.74 568.28Z"/>
	<path fill="#91CE00" d="M269.116 853.438C289.869 851.382 311.544 854.153 331.742 859.111C321.871 886.557 315.987 910.635 297.785 934.579C263.887 979.17 215.982 1003.63 161.133 1011.31C141.097 1013.77 121.726 1013.81 101.588 1013.21C114.28 978.515 130.244 944.448 153.971 915.855C184.047 879.611 222.036 857.799 269.116 853.438Z"/>
	<path fill="#91CE00" d="M130.196 567.535C165.566 565.682 203.883 572.876 235.394 589.008Q236.996 589.821 238.579 590.668Q240.163 591.515 241.728 592.396Q243.294 593.277 244.84 594.191Q246.386 595.105 247.912 596.052Q249.438 596.999 250.943 597.979Q252.449 598.959 253.933 599.97Q255.417 600.982 256.879 602.025Q258.341 603.069 259.78 604.143Q261.219 605.217 262.635 606.322Q264.051 607.427 265.443 608.562Q266.835 609.698 268.202 610.862Q269.57 612.027 270.912 613.221Q272.254 614.414 273.57 615.636Q274.886 616.859 276.175 618.109Q277.465 619.359 278.728 620.637Q279.99 621.914 281.225 623.218Q282.46 624.523 283.666 625.853Q284.873 627.183 286.051 628.539Q287.228 629.896 288.377 631.276Q289.525 632.657 290.644 634.063Q291.762 635.468 292.85 636.897Q293.939 638.326 294.996 639.778Q296.053 641.23 297.079 642.704Q298.105 644.178 299.099 645.674Q300.093 647.17 301.055 648.687Q302.017 650.204 302.946 651.741Q303.875 653.278 304.771 654.835Q305.666 656.391 306.529 657.967Q307.391 659.542 308.219 661.136Q309.048 662.73 309.841 664.341Q310.635 665.952 311.395 667.58Q312.154 669.207 312.878 670.851C319.582 686.103 324.3 702.391 329.423 718.219C320.154 720.963 310.522 722.057 300.966 723.306C266.691 726.993 231.589 721.24 201.103 704.866C151.668 678.315 118.2 622.494 102.166 569.954Q116.148 568.36 130.196 567.535Z"/>
	<path fill="#91CE00" d="M925.955 248.927C944.274 253.425 962.263 260.488 979.755 267.473C1079.5 307.305 1173.08 377.258 1235.75 464.933C1225.16 481.865 1218.04 499.296 1212.72 518.491C1210.95 525.542 1210.14 532.94 1209.04 540.124C1202.5 531.46 1196.86 522.04 1190.75 513.058Q1179.72 497.131 1167.58 482.033Q1162.84 476.15 1157.93 470.408Q1153.02 464.665 1147.94 459.068Q1142.87 453.471 1137.63 448.024Q1132.4 442.577 1127.01 437.284Q1121.61 431.992 1116.07 426.858Q1110.53 421.725 1104.84 416.755Q1099.14 411.786 1093.31 406.983Q1087.48 402.181 1081.51 397.551Q1075.54 392.921 1069.44 388.466Q1063.33 384.011 1057.1 379.736Q1050.87 375.461 1044.52 371.369Q1038.17 367.277 1031.7 363.371Q1025.24 359.465 1018.66 355.75Q1012.08 352.034 1005.4 348.511Q998.712 344.988 991.928 341.662Q985.144 338.335 978.267 335.207C964.645 328.946 950.394 323.785 936.437 318.311C941.171 294.032 933.311 271.73 925.955 248.927Z"/>
	<path fill="#91CE00" d="M673.319 250.185C673.973 257.363 669.288 267.483 667.742 274.682C664.589 289.367 664.287 305.539 666.343 320.392C635.63 332.036 606.191 344.582 577.47 360.664Q574.016 362.594 570.595 364.58Q567.173 366.567 563.785 368.609Q560.396 370.652 557.042 372.75Q553.688 374.848 550.369 377.001Q547.05 379.154 543.766 381.362Q540.483 383.57 537.237 385.831Q533.99 388.092 530.781 390.407Q527.573 392.721 524.402 395.088Q521.232 397.455 518.102 399.874Q514.971 402.293 511.88 404.764Q508.79 407.234 505.741 409.755Q502.691 412.276 499.684 414.846Q496.677 417.417 493.712 420.037Q490.747 422.657 487.826 425.326Q484.905 427.994 482.029 430.71Q479.152 433.426 476.32 436.19Q473.489 438.953 470.703 441.763Q467.918 444.572 465.179 447.427Q462.44 450.282 459.748 453.182Q457.057 456.082 454.414 459.026Q451.77 461.969 449.176 464.956Q446.581 467.943 444.036 470.973Q441.492 474.002 438.997 477.073Q436.502 480.143 434.058 483.255Q431.615 486.366 429.223 489.518Q426.831 492.669 424.491 495.859Q422.151 499.05 419.864 502.278Q417.577 505.507 415.344 508.772Q413.11 512.038 410.931 515.34Q408.752 518.642 406.627 521.98Q404.502 525.317 402.433 528.689Q400.364 532.061 398.35 535.467C395.166 528.345 392.321 521.035 389.333 513.827C381.686 497.842 373.056 482.678 364.062 467.426C382.697 442.007 402.506 417.764 424.742 395.379C492.158 327.513 580.458 274.283 673.319 250.185Z"/>
	<path fill="#91CE00" d="M1262.69 927.839C1269.53 936.593 1272.4 947.988 1278.3 957.387C1285.87 969.452 1296.44 979.423 1305.37 990.468C1289.21 1029.36 1270.58 1065.38 1246.83 1100.26C1164.56 1221.09 1033.76 1296.42 891.588 1323.43Q873.243 1326.2 854.85 1328.63C869.124 1314.33 921.928 1256.28 934.902 1250.16C954.835 1240.76 976.63 1235.03 996.94 1226.11Q1001.46 1224.16 1005.94 1222.11Q1010.41 1220.06 1014.84 1217.92Q1019.28 1215.78 1023.66 1213.54Q1028.05 1211.31 1032.39 1208.98Q1036.73 1206.66 1041.02 1204.24Q1045.31 1201.82 1049.54 1199.32Q1053.78 1196.81 1057.97 1194.22Q1062.15 1191.62 1066.28 1188.94Q1070.41 1186.26 1074.48 1183.49Q1078.55 1180.72 1082.56 1177.87Q1086.57 1175.02 1090.53 1172.08Q1094.48 1169.14 1098.37 1166.13Q1102.26 1163.11 1106.08 1160.01Q1109.91 1156.91 1113.66 1153.73Q1117.42 1150.55 1121.11 1147.29Q1124.81 1144.04 1128.43 1140.7Q1132.05 1137.37 1135.6 1133.96Q1139.15 1130.55 1142.63 1127.07Q1146.11 1123.58 1149.52 1120.03Q1152.92 1116.47 1156.25 1112.85Q1159.58 1109.22 1162.83 1105.53Q1166.09 1101.83 1169.26 1098.07Q1172.44 1094.3 1175.53 1090.48Q1178.63 1086.65 1181.64 1082.76Q1184.66 1078.86 1187.59 1074.91Q1190.52 1070.95 1193.37 1066.94Q1196.21 1062.92 1198.98 1058.85Q1201.74 1054.77 1204.42 1050.64Q1207.09 1046.51 1209.68 1042.32Q1212.27 1038.14 1214.77 1033.9Q1217.28 1029.66 1219.69 1025.36Q1222.1 1021.07 1224.42 1016.73C1239.64 988.04 1250.93 958.06 1262.69 927.839Z"/>
	<path fill="#91CE00" d="M342.385 923.923C343.692 925.6 357.878 969.525 360.486 976.107C377.71 1019.58 399.533 1059.5 429.329 1095.7C477.402 1154.1 539.51 1196.85 608.213 1227.51C625.803 1235.36 657.09 1243.97 671.089 1253.25C683.027 1261.17 693.113 1274.71 702.743 1285.36C716.407 1300.47 729.846 1315.5 744.782 1329.38Q724.619 1326.72 704.502 1323.74C660.063 1319.1 608.348 1300.79 567.976 1282.02Q562.087 1279.33 556.267 1276.49Q550.446 1273.65 544.699 1270.66Q538.952 1267.68 533.281 1264.55Q527.611 1261.42 522.02 1258.16Q516.43 1254.89 510.923 1251.48Q505.416 1248.07 499.996 1244.53Q494.576 1240.98 489.247 1237.31Q483.918 1233.63 478.682 1229.81Q473.447 1226 468.308 1222.06Q463.17 1218.12 458.131 1214.05Q453.093 1209.98 448.159 1205.79Q443.224 1201.6 438.396 1197.28Q433.568 1192.97 428.849 1188.53Q424.131 1184.09 419.525 1179.54Q414.919 1174.99 410.428 1170.32Q405.938 1165.66 401.566 1160.88Q397.193 1156.1 392.942 1151.22Q388.691 1146.33 384.563 1141.34Q380.436 1136.35 376.435 1131.26Q372.433 1126.17 368.561 1120.98Q364.688 1115.79 360.947 1110.5Q357.206 1105.22 353.598 1099.84Q349.99 1094.46 346.518 1089Q343.046 1083.53 339.712 1077.98Q336.379 1072.43 333.185 1066.79Q329.991 1061.16 326.939 1055.45Q323.887 1049.74 320.98 1043.95Q318.072 1038.16 315.31 1032.31Q312.548 1026.45 309.934 1020.52Q307.319 1014.6 304.854 1008.61Q302.389 1002.62 300.075 996.574Q297.76 990.526 295.598 984.422C315.474 966.881 328.961 946.469 342.385 923.923Z"/>
	<path fill="#91CE00" d="M800.802 106.116C808.077 113.093 816.884 128.806 822.496 137.577C846.759 175.497 897.989 257.868 900.635 301.672C902.207 327.682 891.734 354.396 874.476 373.68C854.698 395.778 829.513 403.47 800.728 405.168C779.86 403.537 758.721 398.453 741.492 386.066C719.507 370.259 705.125 344.767 701.035 318.165C692.013 259.474 766.72 152.276 800.802 106.116Z"/>
	<path fill="#91CE00" d="M818.542 885.107C819.853 886.648 820.009 888.726 820.137 890.707C821.623 913.77 820.309 937.658 820.306 960.802L820.309 1099.8Q868.883 1099.01 917.462 1099.1C935.676 1099.01 954.169 1097.65 972.321 1099.41C977.371 1099.9 982.627 1100.59 986.819 1103.68C991.878 1107.41 994.99 1113.61 995.825 1119.76C996.739 1126.49 995.181 1131.48 990.999 1136.67C982.357 1147.38 971.545 1157.06 961.912 1166.92L902.159 1227.95C882.699 1247.82 863.026 1267.53 843.838 1287.67C833.744 1298.26 824.259 1309.96 813.585 1319.93C809.87 1323.4 805.479 1327.03 800.207 1327.4C793.594 1327.86 789.527 1324 784.751 1320.08C770.374 1306.17 757.162 1290.81 743.652 1276.05L676.551 1202.83L639.108 1162.19C629.824 1152.28 619.447 1142.43 611.646 1131.31C609.19 1127.8 608.069 1123 607.979 1118.77C607.862 1113.32 609.48 1107.8 613.446 1103.91C617.292 1100.14 623.822 1099.54 628.99 1099.03C646.837 1097.28 665.28 1099.1 683.201 1099.18C715.892 1099.31 748.611 1098.83 781.303 1098.58L781.267 886.065C787.502 888.92 793.281 892.387 799.15 895.91Q808.808 890.441 818.542 885.107Z"/>
	<path fill="#91CE00" d="M708.324 600.287C734.3 598.731 759.704 610.806 778.383 628.347C783.104 632.78 793.587 646.987 799.646 648.032C808.104 645.148 818.066 631.611 825.137 625.294C842.841 609.482 867.286 599.255 891.238 600.765C910.868 602.002 928.613 611.403 941.446 626.167C958.985 646.343 966.078 673.237 964.008 699.609C959.918 751.72 920.735 794.299 882.862 826.801Q863.158 842.54 842.303 856.72Q821.449 870.899 799.567 883.436Q783.048 874.385 767.247 864.131Q751.446 853.877 736.452 842.476C690.848 807.917 644.227 760.351 636.329 701.164Q636.163 699.995 636.025 698.822Q635.888 697.649 635.779 696.473Q635.671 695.297 635.591 694.118Q635.512 692.94 635.462 691.76Q635.412 690.58 635.391 689.399Q635.37 688.218 635.378 687.037Q635.386 685.856 635.424 684.676Q635.461 683.495 635.528 682.316Q635.594 681.137 635.69 679.96Q635.785 678.783 635.91 677.608Q636.035 676.434 636.189 675.263Q636.342 674.092 636.525 672.925Q636.707 671.758 636.919 670.596Q637.13 669.434 637.37 668.278Q637.61 667.121 637.879 665.971Q638.147 664.821 638.444 663.678Q638.741 662.535 639.066 661.4Q639.391 660.264 639.744 659.137Q640.097 658.01 640.478 656.892Q640.859 655.774 641.267 654.666Q641.676 653.558 642.111 652.46Q642.547 651.362 643.009 650.276Q643.472 649.189 643.961 648.114Q644.45 647.039 644.966 645.977Q645.482 644.914 646.023 643.865Q646.565 642.815 647.133 641.779Q647.7 640.744 648.293 639.722Q648.886 638.701 649.504 637.695Q650.122 636.688 650.765 635.697Q651.408 634.706 652.075 633.732Q652.742 632.757 653.433 631.799Q654.124 630.841 654.838 629.901C668.252 612.584 686.775 602.995 708.324 600.287Z"/>
	<path fill="#91CE00" d="M781.243 444.149C795.379 448.232 804.342 448.131 818.607 444.426C819.262 478.476 818.42 512.6 818.779 546.667C828.28 535.845 838.488 526.141 850.356 517.928Q851.731 516.973 853.129 516.053Q854.527 515.132 855.948 514.248Q857.37 513.363 858.812 512.514Q860.255 511.665 861.719 510.853Q863.183 510.041 864.666 509.266Q866.15 508.491 867.653 507.753Q869.156 507.015 870.676 506.316Q872.197 505.616 873.735 504.955Q875.273 504.294 876.827 503.672Q878.381 503.05 879.95 502.467Q881.519 501.884 883.103 501.341Q884.686 500.797 886.283 500.294Q887.879 499.791 889.488 499.328Q891.096 498.865 892.716 498.443Q894.336 498.02 895.966 497.639Q897.596 497.257 899.235 496.917Q900.874 496.576 902.521 496.277Q904.168 495.978 905.822 495.721Q907.476 495.463 909.136 495.247Q910.796 495.032 912.461 494.857Q914.126 494.683 915.794 494.551Q917.463 494.419 919.135 494.329Q920.806 494.239 922.48 494.191Q924.153 494.143 925.827 494.137Q927.501 494.131 929.174 494.167Q930.848 494.203 932.52 494.282Q934.192 494.36 935.862 494.48Q937.531 494.6 939.198 494.763Q940.864 494.925 942.525 495.129Q944.187 495.333 945.843 495.579Q947.498 495.825 949.147 496.112Q950.797 496.399 952.438 496.728C997.385 505.29 1037.28 534.807 1062.61 572.263C1075.28 569.861 1086.73 569.782 1098.25 576.383Q1099.27 576.983 1100.26 577.632Q1101.26 578.281 1102.21 578.978Q1103.17 579.676 1104.09 580.419Q1105.02 581.163 1105.9 581.951Q1106.79 582.739 1107.63 583.569Q1108.48 584.4 1109.28 585.271Q1110.09 586.142 1110.85 587.052Q1111.61 587.962 1112.32 588.908Q1113.03 589.853 1113.7 590.833Q1114.37 591.813 1114.98 592.825Q1115.6 593.836 1116.17 594.877Q1116.74 595.917 1117.25 596.984Q1117.77 598.052 1118.23 599.143Q1118.69 600.234 1119.1 601.347Q1119.51 602.46 1119.86 603.591Q1120.21 604.723 1120.51 605.87Q1120.8 606.989 1121.04 608.12Q1121.27 609.252 1121.45 610.395Q1121.63 611.537 1121.75 612.687Q1121.87 613.837 1121.93 614.991Q1122 616.146 1122 617.302Q1122 618.458 1121.95 619.613Q1121.89 620.768 1121.78 621.919Q1121.67 623.069 1121.5 624.213Q1121.33 625.356 1121.1 626.49Q1120.87 627.623 1120.59 628.744Q1120.3 629.864 1119.96 630.969Q1119.62 632.074 1119.22 633.16Q1118.83 634.246 1118.38 635.311Q1117.93 636.375 1117.42 637.416Q1116.92 638.457 1116.36 639.471Q1115.81 640.484 1115.2 641.469C1106.53 655.45 1093.08 660.302 1077.87 663.609C1085.1 689.047 1099.87 713.154 1111.02 737.071L1159.99 842.772C1171.94 868.515 1184.38 894.046 1195.05 920.353C1196.06 922.839 1198.78 930.595 1201.23 931.332C1203.18 931.918 1205.13 931.089 1207.34 932.024C1207.42 932.266 1207.53 932.501 1207.59 932.75C1210.36 943.86 1199.92 969.754 1194.79 979.83C1178.64 1011.54 1152.25 1034.22 1118.32 1045.19Q1116.78 1045.68 1115.24 1046.12Q1113.69 1046.57 1112.13 1046.98Q1110.57 1047.39 1109.01 1047.77Q1107.44 1048.14 1105.86 1048.47Q1104.29 1048.81 1102.7 1049.1Q1101.12 1049.4 1099.53 1049.65Q1097.94 1049.91 1096.34 1050.13Q1094.74 1050.34 1093.14 1050.52Q1091.54 1050.7 1089.94 1050.84Q1088.33 1050.98 1086.72 1051.08Q1085.12 1051.18 1083.51 1051.24Q1081.9 1051.3 1080.28 1051.32Q1078.67 1051.35 1077.06 1051.33Q1075.45 1051.31 1073.84 1051.25Q1072.23 1051.2 1070.62 1051.1Q1069.01 1051 1067.41 1050.87Q1065.8 1050.73 1064.2 1050.56Q1062.6 1050.38 1061 1050.17Q1059.41 1049.96 1057.82 1049.71Q1056.22 1049.45 1054.64 1049.16Q1053.06 1048.87 1051.48 1048.54Q1049.9 1048.21 1048.33 1047.84Q1046.76 1047.47 1045.21 1047.07Q1043.65 1046.66 1042.1 1046.22Q1040.55 1045.77 1039.01 1045.29Q1037.47 1044.81 1035.95 1044.29Q1034.42 1043.77 1032.91 1043.21Q1031.4 1042.66 1029.9 1042.06Q1028.4 1041.47 1026.92 1040.84Q1025.44 1040.21 1023.97 1039.54Q1022.5 1038.88 1021.05 1038.18Q1019.6 1037.48 1018.17 1036.74C986.612 1020.24 965.35 992.169 954.95 958.542C953.219 952.946 948.178 937.894 951.617 932.658C952.277 931.653 954.7 931.516 955.86 931.261C957.946 929.44 959.172 927.347 960.374 924.862C965.755 913.734 970.285 902.03 975.238 890.695Q988.29 860.828 1001.89 831.206L1047.68 730.736C1054.19 716.523 1061.34 702.564 1067.53 688.214C1071.02 680.128 1073.75 672.007 1076.17 663.555C1070.58 662.668 1065.04 661.803 1059.71 659.846Q1058.64 659.457 1057.59 659.015Q1056.53 658.573 1055.51 658.079Q1054.48 657.584 1053.48 657.038Q1052.48 656.492 1051.5 655.897Q1050.53 655.301 1049.59 654.657Q1048.65 654.014 1047.74 653.323Q1046.83 652.632 1045.96 651.897Q1045.09 651.161 1044.26 650.383Q1043.42 649.605 1042.63 648.785Q1041.84 647.966 1041.08 647.107Q1040.33 646.249 1039.63 645.353Q1038.92 644.458 1038.26 643.528Q1037.6 642.599 1036.99 641.637Q1036.37 640.675 1035.81 639.683Q1035.25 638.692 1034.73 637.673Q1034.22 636.654 1033.76 635.611C1027.55 621.83 1028.91 608.191 1034.06 594.403C1023.27 579.611 1010.63 567.599 995.224 557.644C967.572 539.776 936.093 530.185 903.322 537.482C856.929 547.812 830.217 588.803 806.372 626.23L800.563 635.546C794.302 629.069 789.667 620.298 784.822 612.727C772.585 593.6 759.797 575.721 741.913 561.358C718.217 542.328 688.729 531.699 658.204 535.319C618.204 540.062 591.309 563.958 567.298 594.523C570.117 599.928 572.445 605.347 573.425 611.399C575.178 622.221 572.346 632.759 565.982 641.612C555.815 655.757 540.212 659.555 523.946 662.019C530.576 691.702 547.295 718.233 559.696 745.736L643.54 931.436L652.384 931.617C650.781 955.096 645.448 975.347 631.395 994.642Q630.408 996.017 629.387 997.368Q628.366 998.719 627.312 1000.04Q626.259 1001.37 625.172 1002.67Q624.086 1003.97 622.968 1005.24Q621.85 1006.51 620.701 1007.75Q619.552 1008.99 618.372 1010.21Q617.193 1011.42 615.984 1012.61Q614.774 1013.79 613.536 1014.95Q612.298 1016.1 611.032 1017.23Q609.766 1018.35 608.472 1019.44Q607.179 1020.54 605.859 1021.6Q604.538 1022.66 603.192 1023.68Q601.846 1024.71 600.476 1025.7Q599.105 1026.7 597.71 1027.66Q596.314 1028.61 594.896 1029.54Q593.478 1030.46 592.037 1031.35Q590.596 1032.24 589.134 1033.09Q587.672 1033.95 586.189 1034.76Q584.706 1035.58 583.203 1036.36Q581.701 1037.14 580.179 1037.88Q578.658 1038.63 577.118 1039.33Q575.579 1040.04 574.023 1040.7Q572.467 1041.37 570.894 1042Q569.322 1042.62 567.735 1043.21Q566.147 1043.8 564.546 1044.35Q562.945 1044.9 561.33 1045.41Q559.716 1045.92 558.089 1046.39Q556.463 1046.86 554.825 1047.29Q553.187 1047.72 551.539 1048.11Q549.892 1048.5 548.235 1048.84Q546.578 1049.19 544.913 1049.5Q543.248 1049.8 541.576 1050.07Q540.026 1050.32 538.47 1050.53Q536.914 1050.74 535.353 1050.91Q533.792 1051.08 532.228 1051.21Q530.664 1051.34 529.096 1051.43Q527.529 1051.53 525.96 1051.58Q524.391 1051.63 522.821 1051.65Q521.251 1051.66 519.682 1051.64Q518.112 1051.62 516.543 1051.55Q514.974 1051.49 513.408 1051.39Q511.841 1051.29 510.277 1051.15Q508.714 1051.01 507.154 1050.83Q505.594 1050.65 504.04 1050.43Q502.485 1050.21 500.936 1049.96Q499.387 1049.7 497.845 1049.4Q496.303 1049.11 494.769 1048.78Q493.234 1048.44 491.709 1048.07Q490.183 1047.7 488.667 1047.29Q487.151 1046.89 485.646 1046.44Q484.141 1045.99 482.647 1045.51Q481.153 1045.03 479.672 1044.51Q478.191 1043.99 476.723 1043.43Q475.255 1042.87 473.801 1042.28Q472.347 1041.69 470.909 1041.06Q469.47 1040.43 468.048 1039.77Q466.625 1039.1 465.219 1038.4Q463.814 1037.7 462.426 1036.97Q461.038 1036.24 459.669 1035.47Q458.3 1034.7 456.95 1033.9Q455.6 1033.1 454.271 1032.26Q452.941 1031.43 451.633 1030.56Q450.325 1029.69 449.038 1028.79Q447.752 1027.89 446.488 1026.96C413.922 1002.85 396.227 970.282 390.387 930.674L401.201 931.369L475.54 766.447C482.777 750.672 489.92 734.836 497.382 719.166C506.203 700.642 516.687 682.328 520.971 662.091C506.905 658.083 495.686 652.203 487.613 639.541Q486.953 638.514 486.345 637.454Q485.737 636.395 485.183 635.307Q484.628 634.219 484.128 633.105Q483.629 631.991 483.185 630.853Q482.741 629.715 482.355 628.557Q481.968 627.399 481.64 626.223Q481.312 625.046 481.042 623.855Q480.773 622.664 480.563 621.461Q480.353 620.258 480.203 619.046Q480.054 617.834 479.964 616.616Q479.875 615.398 479.847 614.178Q479.818 612.957 479.851 611.736Q479.883 610.515 479.976 609.298Q480.069 608.08 480.222 606.869Q480.376 605.657 480.589 604.455Q480.803 603.252 481.076 602.062C483.765 590.691 490.813 580.506 500.98 574.598C511.753 568.338 523.977 567.814 535.711 571.13Q539.456 565.525 543.622 560.226Q547.788 554.927 552.35 549.965Q556.912 545.003 561.844 540.407Q566.775 535.812 572.046 531.61C604.63 505.63 646.625 490.559 688.473 495.461Q690.173 495.65 691.867 495.881Q693.562 496.112 695.25 496.384Q696.938 496.656 698.62 496.969Q700.301 497.282 701.974 497.636Q703.647 497.99 705.311 498.385Q706.975 498.78 708.629 499.216Q710.283 499.651 711.925 500.127Q713.568 500.603 715.198 501.119Q716.829 501.634 718.446 502.19Q720.064 502.745 721.667 503.34Q723.271 503.935 724.859 504.569Q726.447 505.203 728.02 505.875Q729.592 506.547 731.148 507.258Q732.703 507.969 734.241 508.717Q735.779 509.466 737.298 510.251Q738.816 511.037 740.316 511.86Q741.815 512.682 743.294 513.542Q744.773 514.401 746.23 515.296Q747.687 516.191 749.122 517.121Q750.557 518.051 751.969 519.016Q753.381 519.981 754.769 520.98Q756.157 521.98 757.52 523.013Q758.883 524.046 760.22 525.111Q761.557 526.177 762.868 527.275Q764.179 528.374 765.463 529.504Q766.747 530.633 768.003 531.794Q769.258 532.955 770.485 534.147Q771.712 535.338 772.91 536.559Q774.107 537.78 775.274 539.03Q776.442 540.279 777.578 541.557Q778.715 542.835 779.819 544.141Q780.924 545.446 781.997 546.778Q781.979 495.461 781.243 444.149ZM1077.46 719.24C1057.04 768.883 1032.94 817.317 1010.29 865.999Q1000.18 887.616 990.52 909.442C987.342 916.625 983.664 923.93 981.112 931.348C1014.49 931.584 1047.97 930.908 1081.33 931.843C1112.79 930.458 1144.49 931.986 1176 931.353C1166.56 913.189 1158.57 894.482 1149.94 875.936C1134.13 841.923 1118.44 808.024 1103.25 773.724C1095.15 755.43 1085.06 737.653 1077.46 719.24ZM521.345 719.256L458.975 859.707L438.913 903.226C434.534 912.644 429.765 922.04 426.35 931.862Q475.295 930.969 524.248 931.171L617.972 931.23C601.999 894.126 584.452 857.662 567.899 820.814C552.7 786.978 538.358 752.219 521.345 719.256Z"/>
</svg>
